<svg xmlns="http://www.w3.org/2000/svg" width="254.572" height="414.5" viewBox="0 0 254.572 414.5">
    <g id="Late_for_Class" data-name="Late for Class" transform="translate(0)">
      <path id="Path_4432" data-name="Path 4432" d="M367.818,295.883a3.6,3.6,0,0,1,2.823,1.262,23.191,23.191,0,0,0,8.323,6.085,58.187,58.187,0,0,0,5.984,1.788q5.9,1.77,11.794,3.569a10.228,10.228,0,0,0,6.492-.035,1.471,1.471,0,0,1,1.2.513,11.505,11.505,0,0,1,2.627,6.333,5.011,5.011,0,0,0,5.286,4.519,49.453,49.453,0,0,0,14.889-1.953c3.056-.96,5.854-2.789,8.693-4.36,2.958-1.637,5.9-3.325,8.712-5.191,2.468-1.638,3.146-3.664,2.254-6.458-1.19-3.733-2.574-7.4-3.865-11.1-1.317-3.786-2.714-7.545-3.9-11.37-.863-2.775-1.42-5.646-2.156-8.463-.5-1.913-.479-2.074,1.394-2.524,2.685-.648,5.368-1.254,7.18-3.622.069-.088.2-.124.463-.273,2.505,2.664,5.042,5.326,7.526,8.035a2.313,2.313,0,0,0,1.961.751c2.032-.037,2.156-.018,2.6,1.9.852,3.653,2.077,7.265,1.611,11.119-.135,1.122-.2,2.251-.248,3.381a1.146,1.146,0,0,0,1.619,1.275,8.075,8.075,0,0,0,2.466-1.317c1.444-1.1,2.8-2.307,4.27-3.532A59.86,59.86,0,0,1,473.2,297.3c.093.238.164.487.27.719.9,1.942,1.6,2.05,2.883.342a66.545,66.545,0,0,0,3.876-5.476,19.082,19.082,0,0,0,2.992-9.7,60.512,60.512,0,0,0-.267-6.418c-.262-2.77-2.291-4.582-3.873-6.619-.775-1-1.661-1.916-2.359-2.963a11.239,11.239,0,0,0-5.093-4.151c2.611-1.153,5.207-2.431,5.167-5.439a10.213,10.213,0,0,0-2.688-6.767c2.78-2.36,1.445-5.889,1.934-8.99a26.093,26.093,0,0,0,.021-6.328c-.227-2.542-2.071-7.294-5.616-8.124-2.8-.659-4.217-2.741-5.108-5.074a6.967,6.967,0,0,0-3.963-4.5c-1-.407-1.3-1.355-1.222-2.624.151-2.452,1.945-3.823,3.175-5.54,1.434-2,2.109-3.992,1.288-6.426-1.6-4.733-3.082-9.5-4.656-14.246a3.431,3.431,0,0,0-3.826-2.59,36.167,36.167,0,0,0-4.36.513,1.366,1.366,0,0,1-1.59-.775c-1.532-2.664-3.164-5.272-4.622-7.979-1.159-2.151-3.415-3.082-4.929-4.8-1.624-1.844-3.508-1.709-5.569-1.161a1.547,1.547,0,0,1-1.077-.1c-1.458-.865-3.119-1.513-3.809-3.286a1.236,1.236,0,0,0-.465-.606c-2.937-1.7-4.892-4.384-6.889-6.984-1.558-2.026-2.839-4.262-4.318-6.352a21.977,21.977,0,0,0-1.995-2.209c1.527-2.026,3.22-3.95,4.535-6.1a17.464,17.464,0,0,0,2.672-8.931,20.754,20.754,0,0,0-1.9-8.233c-1.735-4.161-2.624-8.561-3.7-12.926a42.511,42.511,0,0,0-7.439-15.976c-1.86-2.413-4.011-4.614-5.717-7.122-1.68-2.468-2.942-5.22-4.436-7.815A59.666,59.666,0,0,0,397,79.832a37.182,37.182,0,0,0-3.193-3.042,17.422,17.422,0,0,1-2.913-3.571,18.388,18.388,0,0,0-4.717-5.426c-.688-.579-1.362-1.172-2.066-1.78-.7,1.042-1.323.336-2.116-.265-2.942-2.235-5.841-4.556-8.963-6.516-1.471-.923-3.394-1.151-5.138-1.6s-3.749-.392-5.212-1.267a7.3,7.3,0,0,0-6.14-.622c-2.648.7-5.376,1.124-8.005,1.886a15.239,15.239,0,0,0-8.574,6.7,14.657,14.657,0,0,0-2.683,8.466,7.752,7.752,0,0,0,.191,1.283c.349,1.614-.169,2.476-1.408,3.593a29.238,29.238,0,0,0-4.841,5.122c-1.452,2.162-1.153,4.831-1.005,7.365.2,3.439,1.865,6.49,2.574,9.784q1.055,4.9,1.809,9.873a44.737,44.737,0,0,1,.289,5.1,15.608,15.608,0,0,0,2.4,8.17c.878,1.341.73,2.9,1.569,4-1.78,2.989-4.328,4.391-3.651,8.463a36.726,36.726,0,0,0,1.534,5.294c-1.5,1.389-2.889,4.257-4.455,5.934-1.961,2.1-5.9,5.32-7.715,7.558-.875,1.085,1.86,1.249,2.41,2.235,1.228,2.206,2.582,4.341,3.839,6.529a11.409,11.409,0,0,1,1.632,3.334c.219,1.2-.341.135-.474,1.394-.04.386-1.834-.651-1.852-.265-.185,3.931,1.6,11.656,1.3,15.577-.325,4.275-.793,8.542-1.328,12.8a9.416,9.416,0,0,0,.206,4.831,1.616,1.616,0,0,1-.286,1.182c-1.54,2.49-3.058,4.995-4.712,7.405a21.236,21.236,0,0,1-2.41,2.391c-2.6,2.7-3.855,5.828-3.1,9.638.458,2.291-1.4,4.965-3.593,5.793-4.505,1.7-8.833,3.884-11.307,8.228-1.432,2.516-3.881,3.106-6,4.394-.4.248-.875.392-1.28.643-1.931,1.2-1.751,1.619-1.55,3.627.18,1.8-.574,3-2.384,3.162a1.228,1.228,0,0,0-.55.309c-3,2.3-6.1,4.489-8.953,6.968a25.17,25.17,0,0,0-3.484,4.516,16.673,16.673,0,0,0-1.349,2.315c-1.18,2.365-.309,2.923,1.682,4.127,1.744,1.056,3.72.974,5.611,1.3a12.478,12.478,0,0,0,1.918.257,25.974,25.974,0,0,0,5.812-.077c1.738-.375,3.317-1.5,4.96-2.307a6.552,6.552,0,0,0,.762-.511,12.8,12.8,0,0,0,.984,1.815c.323.421.815.952,1.27.995,2.268.2,4.582.693,6.8-.212,1.511-.616,2.96-1.384,4.839-2.275-.746,2.119-1.281,3.929-2.013,5.653-1.358,3.191-2.73,6.381-4.278,9.482-2.148,4.3-3.37,8.924-4.759,13.474a96.267,96.267,0,0,0-3.762,16.378c-.047.381-.219.748-.243,1.13-.167,2.736.7,4.135,3.41,5.085A47.817,47.817,0,0,0,313.9,318.37c3.394.3,6.865.093,10.137,1.3,1.082.4,2.1.952,3.154,1.434a14.791,14.791,0,0,0,8.312,1.257,29.554,29.554,0,0,1,7.99.225,15.971,15.971,0,0,0,4.378-.059c2.127-.3,4.212-.873,6.331-1.251,2.813-.5,5-2.114,7.122-3.857A14.319,14.319,0,0,1,363,315.995c1.392-.812,1.4-2.508,2.341-3.519,1.8-1.931,1.624-4.447,2.336-6.7.518-1.635,1.36-3.22,1.058-5.019-.259-1.547-.587-3.087-.931-4.87Z" transform="translate(-244.395 -55.201)" fill="#fff"/>
      <path id="Path_4433" data-name="Path 4433" d="M275.645,859.866a73,73,0,0,0-3.659-21.776c-1.209-3.77-4.138-5.238-7.683-5.719a41.677,41.677,0,0,0-6.8-.27,27.551,27.551,0,0,0-4.4.754,1.071,1.071,0,0,0-.651.4c-.6.945-1.27.577-1.963.167a3.042,3.042,0,0,0-4.558,1.8c-1.252,3.471-.505,6.984-.46,10.476a1.343,1.343,0,0,0,1.664,1.46c1.172-.14,2.378.037,3.561-.05.957-.071,1.31.429,1.593,1.2,1.7,4.614,3.468,9.2,5.1,13.841a37.942,37.942,0,0,1,1.5,5.849,78.543,78.543,0,0,1,1.235,8.833,22.076,22.076,0,0,0,1.709,7.019,13.979,13.979,0,0,0,.542,1.3c.765,1.437,1.7,1.73,3.051.8a16.755,16.755,0,0,0,6.034-6.849,48.332,48.332,0,0,0,3.823-13.122c.31-2.2.273-4.444.362-6.114Z" transform="translate(-22.445 -499.925)" fill="#fff"/>
      <path id="Path_4434" data-name="Path 4434" d="M743.493,936.041c.693.569.587,1.042-.072,1.6a4.287,4.287,0,0,1-4.09,1.035c-2.106-.455-4.381-.077-6.577-.191a30.658,30.658,0,0,1-3.143-.622,2.935,2.935,0,0,0-1.219.146c-2.344.669-4.487.047-6.611-.913a46.3,46.3,0,0,0-5.693-2.365,41.789,41.789,0,0,0-5.6-.87c-.037,1.939-.1,3.7-.077,5.455a1.3,1.3,0,0,0,.545.847,23.037,23.037,0,0,0,2.783,1.833,9.471,9.471,0,0,1,2.958,2.884,19.617,19.617,0,0,0,3.995,3.653q9.115,6.516,18.352,12.855a57.456,57.456,0,0,0,5.069,2.791c1.36.744,2.714,1.5,4.071,2.244,1.876,1.026,2.045.688,3.55-.786,2.974-2.911,3.746-6.745,3.95-10.4.225-4.011,2.029-7.476,2.609-11.3a22.733,22.733,0,0,1,3.1-8.357c.669-1.111.392-1.479-.83-1.894a1.335,1.335,0,0,1-.691-.884c-.278-1.415-1.346-2.034-2.458-2.638a30.24,30.24,0,0,0-2.886-1.535c-2.672-1.09-4.1-1.164-6.1,2a15.573,15.573,0,0,1-4.95,5.421Z" transform="translate(-707.394 -554.818)" fill="#fff"/>
      <path id="Path_4435" data-name="Path 4435" d="M416.474,155.341a4.5,4.5,0,0,0,3.54-2.672c.323-.7.664-.69,1.2-.312.958.672,1.807,1.389,1.765,2.725-.021.632.124,1.3.868,1.439a1.511,1.511,0,0,0,1.553-.778,4.513,4.513,0,0,0,.656-4.465c2.174.844,3.929-.045,5.7-.871,2.759-1.286,6.026,1.074,6.8,3.976a8.822,8.822,0,0,1-.392,5.151c-.127.386-.328.86.153,1.016.413.135.926.548,1.384-.021,2.021-2.516,3.968-5.082,3.807-8.548-.127-2.727-1.722-4.516-4.053-5.675-1.569-.78-3.231-1.376-4.831-2.1a14.986,14.986,0,0,1-7.534-6.426,48.953,48.953,0,0,1-3.238-6c1.315,1.043,1.439,2.871,2.674,4,.1-.331-.164-1.082.667-.529,2.368,1.577,5.236,1.637,7.847,2.489a6.532,6.532,0,0,0,1.629.019c-1.6-1.593-3.473-2.513-4.439-4.619a14.321,14.321,0,0,0,6.979,1.473,10.2,10.2,0,0,0,5.585-1.96c.246-.177.7-.352.447-.81a1.015,1.015,0,0,0-.995-.545c-8.246.916-14.453-3.418-20.535-8.013-1.5-1.135-1.54-1.418-1.945-3.2.8.217,1.172.916,1.709,1.355a15.207,15.207,0,0,0,7.3,3.082c3.887.656,7.733,1.77,11.717,1.537a18.862,18.862,0,0,0,6.264-1.725,1.892,1.892,0,0,0,1.119-1.757,20.266,20.266,0,0,1-9.341.563,21.125,21.125,0,0,0,3.381-.748c1.066-.437,2.511-.133,3.1-1.73.193-.527,1.449-.566,2.114-1.063.309-.233.746-.294,1-.852a37.542,37.542,0,0,1-16.757,1.711c2.569-.256,4.833-.066,7.085-.376a34.705,34.705,0,0,0,10.222-2.746,6.117,6.117,0,0,0,3.524-5.582c.045-1.1-.368-1.257-1.352-.831a37.419,37.419,0,0,0-5.4,2.654.508.508,0,0,1-.667-.08c1.68-1.13,3.413-2.2,4.352-4.066a2.608,2.608,0,0,0,.252-2.585c-.376-.7-.826-.786-1.323-.227-3.434,3.849-8.114,4.412-12.831,5.005-2.82.354-5.733.645-8.27-.534a18.436,18.436,0,0,0-8.535-1.368,4.478,4.478,0,0,1-1.18-.1c2.106-.106,4.209-.188,6.3-.41,4.45-.473,8.418-1.931,11.312-5.555.349-.437,1.058-1.027.4-1.543a1.682,1.682,0,0,0-2.119-.079c-2.757,2.638-6.066,1.828-9.307,1.672a34.854,34.854,0,0,1-8.487-1.378,18.7,18.7,0,0,1-8.13-5.289c-4.444-4.677-7.529-10.288-10.891-15.712a61.147,61.147,0,0,0-8.148-10.77c-.982-1-1.455-2.426-2.693-3.328a15.9,15.9,0,0,0-6.405-2.9,8.4,8.4,0,0,1-3.685-1.852,33.064,33.064,0,0,0-16.1-7.167,35.355,35.355,0,0,0-20.86,3.463c-2.757,1.389-5.381,3.145-6.386,6.423a6.576,6.576,0,0,0-.129,4.111c.206.608.016.757-.4.968-4.6,2.333-6.871,6.431-8.37,11.093a21.53,21.53,0,0,0-1.368,7.555c.092,2.042.249,4.4,1.78,5.606,2.191,1.722,2.487,3.939,2.976,6.267q.818,3.905,1.743,7.783a5.892,5.892,0,0,1,.133,1.431c-.024,4.383-.286,8.791,1.5,12.966a1.6,1.6,0,0,1-.132,1.137,16.306,16.306,0,0,1-4.865,7.032,16.168,16.168,0,0,0-5.442,11.27,7.465,7.465,0,0,0,.852,4.18,1.036,1.036,0,0,0,.616-1.172,9.371,9.371,0,0,1,3.251-8.715,42.126,42.126,0,0,0,4.259-4.32,4.837,4.837,0,0,1,1.823-1.574,21.12,21.12,0,0,1-1.833,2.249,2.15,2.15,0,0,0-.45,2.426,13.691,13.691,0,0,0,2.018,4.518,1.172,1.172,0,0,1-.159,1.735c-3.831,3.894-6.865,8.452-10.445,12.558-.386.442-.4.561.056,1.167.995,1.336,1.447,3.061,2.339,4.492,1.727,2.77,2.058,5.728,2.2,8.945.339,7.77-.608,15.463-.863,23.191-.159,4.828-.823,9.625-1.439,14.392-1.148,8.86-1.944,17.781-3.855,26.532a153.1,153.1,0,0,1-4.54,16.58q-2.742,8.091-5.9,16.024c-2.686,6.706-5.479,13.373-7.982,20.148-1.907,5.167-4.005,10.3-4.823,15.812a46.546,46.546,0,0,0-.558,8.662c.019.505.3,1.061-.421,1.463-.286.161-.082.777.085,1.217a6.22,6.22,0,0,0,3.257,3.2c3.072,1.664,6.463,2.288,9.815,3.016,2.132.463,4.294.794,6.535,1.2-.955,1.857-1.923,3.712-2.866,5.577a129.288,129.288,0,0,0-9.519,23.087,31.867,31.867,0,0,1-2.712,6.334c-1.169,2.19-1.545,4.579-2.193,6.892-2.056,7.333-4.294,14.617-6.008,22.05-1.423,6.17-2.733,12.371-4.426,18.479-1.574,5.68-3.069,11.384-4.6,17.077-.854,3.183-2.1,6.329-2.421,9.566-.251,2.508-1.749,4.273-2.444,6.458-.183.571-.455,1.116-.6,1.693a.972.972,0,0,1-1.68.537c-1.053-1.193-2.336-.81-3.492-.688a41.462,41.462,0,0,1-8.323-.082,24.367,24.367,0,0,1-4.939-1.36c-2.415-.762-4.789-1.651-7.22-2.386-1.585-.479-3.19-.6-4.773-.923a4.068,4.068,0,0,0-4.984,5.066,6.519,6.519,0,0,0,1.275,2.526,45.927,45.927,0,0,0,4.542,5.294,63.455,63.455,0,0,0,5.958,5.289c2.27,1.64,4.572,3.235,6.873,4.825,2.865,1.979,5.712,3.991,8.638,5.872a44.031,44.031,0,0,0,5.9,3.3c2.278,1.013,4.542,2.064,6.881,2.962,3.016,1.154,4.09.842,5.659-2.052a42.5,42.5,0,0,0,3.479-8.735c.492-1.736,1.325-3.537.934-5.241-.474-2.064.476-3.574,1.029-5.3.476-1.49.825-3.024,1.164-4.556a11.058,11.058,0,0,0,.6-2.778c-.016-.582.709-.587,1.048-.4a13.7,13.7,0,0,0,6.267,1.315c2.114.074,4.355.172,6.28-.9a3.033,3.033,0,0,0,1.561-2.291,45.867,45.867,0,0,1,1.254-4.7c.849-3.156,1.918-6.252,2.942-9.35,1.373-4.164,2.6-8.373,3.929-12.55,1.116-3.5,2.188-7.011,3.415-10.471,1.019-2.868,2.333-5.643,3.19-8.556.508-1.73,1.212-3.394,1.664-5.156.5-1.929,1.034-3.891,1.72-5.786a53.479,53.479,0,0,0,1.735-7.733c.976-4.8,2.447-9.481,3.394-14.283.436-2.209,1.111-4.4.921-6.691-.183-2.206,1.36-3.54,2.492-5.051,4.682-6.249,9.421-12.458,14.13-18.685,2.2-2.907,4.368-5.834,6.561-8.746a1.418,1.418,0,0,0-.056-2.135c-1.608-1.867-3.449-3.5-4.926-5.526.892.791,1.833,1.534,2.664,2.386,2.146,2.2,4.622,4.04,6.7,6.31a36.283,36.283,0,0,1,3.913,4.545,7.771,7.771,0,0,0,1.6,1.495c2.021,1.653,3.291,3.908,4.809,5.955,1.3,1.751,2.444,3.614,3.64,5.442,1.471,2.249,2.923,4.508,4.381,6.765,1.931,2.987,3.785,6.027,5.807,8.953,3.474,5.024,6.9,10.085,10.614,14.939a7.7,7.7,0,0,0,2.7,2.357,14.783,14.783,0,0,1,2.352,2.117,55.941,55.941,0,0,0,7.005,5.265,23.217,23.217,0,0,1,4.18,3.524,112.02,112.02,0,0,0,9.854,8.664,78.972,78.972,0,0,0,9.407,6.513c2.2,1.272,4.394,2.574,6.5,3.963,2.963,1.953,6.064,3.7,8.918,5.823,1.942,1.442,4.013,2.709,6.048,4.024a15.05,15.05,0,0,1,3.259,3.259c.6.714,1.219,1.418,2.3.521.447-.37,1.217-.323,1.764-.608a10.143,10.143,0,0,0,2.91-2.468,16.5,16.5,0,0,0,3.656-7.381c.151-.661.341-.772,1.063-.627.593.116,1.188.508,1.86.283.545-.185.515.378.55.6a61.8,61.8,0,0,0,1.963,8.214c.333,1.138,1.209,2.053,1.511,3.241a74.978,74.978,0,0,1,1.5,7.418c.3,2.029.648,4.072,1.016,6.1.455,2.513,1.153,4.96,1.693,7.447a9.088,9.088,0,0,0,3.879,6.034c1.68,1.066,4.706-.071,5.706-1.953.042-.077.148-.172.13-.222-.624-1.593.757-2.328,1.447-3.331a31.31,31.31,0,0,0,4.389-9.6,55.472,55.472,0,0,0,1.971-9.622,46.105,46.105,0,0,0,.122-9.518,73.647,73.647,0,0,0-3.19-13.183c-.569-1.836-1.389-3.6-2.109-5.387-1.14-2.839-3.62-3.492-6.283-3.77a59.107,59.107,0,0,0-5.971-.4c-2.439-.008-4.963.114-6.8,1.77-1.238,1.119-2.146.685-3.363.476a2.413,2.413,0,0,1-2.082-1.876c-.325-1.063-1.267-1.582-2.005-2.241-1.569-1.4-2.619-3.238-4.085-4.688a54.883,54.883,0,0,0-4.516-4.537c-1.132-.889-2.1-1.979-3.32-2.794a33.62,33.62,0,0,1-2.7-2.22c-1.143-.947-2.278-1.9-3.431-2.836a31.6,31.6,0,0,0-5.434-3.809,78.956,78.956,0,0,1-7.825-4.463,66.594,66.594,0,0,0-9.331-5.481c-.346-.156-.8-.079-1.143-.233-1.764-.788-3.286-1.73-3.743-3.891-.8-3.783-1.881-7.5-2.878-11.241-.976-3.656-2.3-7.193-3.344-10.823-.529-1.844-1.37-3.617-1.92-5.545,1.979-.183,3.9-.077,5.817-.3a52.518,52.518,0,0,0,18.94-5.5,42.174,42.174,0,0,0,9.992-7.214,14.056,14.056,0,0,0,1.569-1.757c.429-.6.714-1.3-.28-1.709-.349-.146-.381-.421-.4-.746-.381-5.46-2.4-10.466-4.423-15.45-1.675-4.125-3.561-8.162-5.289-12.265-.434-1.032-.556-2.191-.942-3.246-.262-.712-.016-.931.606-1.072a11.6,11.6,0,0,0,3.294-1.209c.738-.423,1.458-.892,1.151-1.96a1.651,1.651,0,0,0,2.14-.138c.847-.651,1.455-.743,2.175.418a39.318,39.318,0,0,0,5.99,6.984c.46.457.757.7,1.339.021s1.55-.487,2.346-.392c.585.071.294.714.357,1.1.5,3.058-.034,6.161.371,9.222.217,1.643-.071,3.313.37,4.939a5.035,5.035,0,0,0,3.13,3.749c1.992.73,3.447-.209,3.458-2.307a1.94,1.94,0,0,1,.944-1.608,7.2,7.2,0,0,0,1.849-2.172c.23-.421.389-.963-.085-1.3a.907.907,0,0,0-1.275.169c-.452.45-1.14.666-1.391,1.336-.111.3-.421.508-.59.326-1.333-1.413-1.828.1-2.587.7a1.157,1.157,0,0,1-.265.058c.059-1.714-.159-3.389-.259-5.069a44.1,44.1,0,0,0-1.169-8.026,4.113,4.113,0,0,0-1.322-2.368c-.495-.392-.564-.751.008-1.235,4.156-3.514,8.476-6.749,13.7-8.553.6-.206.955-.259,1.45.259a45.466,45.466,0,0,1,7.878,11.424c.9,1.828,1.333,3.675.333,5.672a13.856,13.856,0,0,0-1.048,5.791c-.1,2.551-1.407,4.686-2.132,7.249-1.135-3.849-.873-7.63-2.1-11.146-.182-.518-.291-1.442-.8-1.317-.783.191-.46,1.061-.381,1.7.378,3.005.884,6.005,1.058,9.024a13.086,13.086,0,0,1-1.564,6.045c-1.1-2.789-2.1-5.363-3.127-7.929-1.228-3.061-3.037-5.879-3.757-9.153-.085-.386-.4-1.132-.815-1.027-.574.148-.6.778-.505,1.431.619,4.2,2.153,8.132,3.521,12.111.415,1.2.984,2.357,1.354,3.571a8.148,8.148,0,0,0,3.278,3.987c.979.748,2.331.156,2.715-1.246a34.346,34.346,0,0,0,.764-3.838c.1-.625.156-1.106.976-1a1,1,0,0,0,.714-.265c1.638-1.593,3.254-3.254,3.661-5.6a45.494,45.494,0,0,1,1.55-7.381c1.09-3.124-.122-6.037-1.728-8.712a50.624,50.624,0,0,0-7.45-9.654c2.466-.936,2.8-3.061,2.857-5.248a4.706,4.706,0,0,0-.619-1.973c-.521-1.111-1.125-2.185-1.7-3.267-.359-.675-1.071-1.159.186-1.923.754-.458.55-1.833.1-2.789-.151-.323-.376-.6-.256-.976.495-1.576.246-3.228.4-4.839a68.425,68.425,0,0,0,.381-7.227,8.474,8.474,0,0,0-2.241-5.841c-2.143-2.4-4.807-4.2-7.188-6.326.368-1.048,1.793-1.64,1.27-3.1-.1-.286.4-.185.624-.265,2.172-.793,2.656-1.661,2.045-3.934a117.5,117.5,0,0,0-7.505-20.27,30.574,30.574,0,0,1-2.6-6.987,5.689,5.689,0,0,0-4.886-4.8c-2.373-.468-4.775-.59-7.156-.918-1.167-.162-1.093.41-.707,1.217,1.77,3.714,3.231,7.561,4.762,11.376a3.211,3.211,0,0,1,.294,1.532c-.794-1.545-1.608-3.079-2.373-4.638-2.394-4.883-4.791-9.767-7.143-14.669a101.257,101.257,0,0,0-4.791-8.977c-2.3-3.77-5.839-5.648-10.019-6.508a3.906,3.906,0,0,0-3.254.383c-.272.2-.5.074-.669-.167a43.314,43.314,0,0,0-7.333-8.061ZM364.9,111.287a15.834,15.834,0,0,0-.86-2.442c-.188-.791.153-1.529.952-1.222a13.907,13.907,0,0,0,5.635.788c.724-.027.717.677.881,1.106.185.482-.339.484-.638.566a13.426,13.426,0,0,1-3.608.458c-.783,0-1.937-.6-2.362.743a1.416,1.416,0,0,0,1.246.812,2.367,2.367,0,0,1,2.016,1.725,24.311,24.311,0,0,0,2.907,4.947,3.691,3.691,0,0,1,.908,3.246,61.681,61.681,0,0,1-4.672,15.873,7.469,7.469,0,0,1-6.122,3.6c-.5-.037-.609-.074-.5-.677a8.906,8.906,0,0,0,.328-2.981,15.039,15.039,0,0,0-2.825-7.13c1.106-.386,2.172-.744,3.228-1.132a10.848,10.848,0,0,0,3.37-2,1.587,1.587,0,0,0,.466-1.994c-.368-.646-1.1-.175-1.646.042-.447.174-.876.4-1.315.6-6.293,2.82-12.786,4.418-19.725,3.1-1.92-.365-3.923-.635-5.087-2.556a38.584,38.584,0,0,1-3.4-6.733c-1.3-3.564-.7-7.434-1.817-11.029-.23-.746.32-.968.9-.762a2.139,2.139,0,0,0,1.9-.093,1.466,1.466,0,0,0,.677-2.106c-.378-.693-.725-1.646-1.947-.9-.852.521-1.582.056-1.752-.937-.095-.558-.074-1.14-.206-1.688-.371-1.526-.916-3.039,1.217-3.8a1.367,1.367,0,0,0,.926-1.54c-.238-.677-1.185-.529-1.653-.328-1.712.736-2.055-.341-2.45-1.577a1.524,1.524,0,0,1,.278-1.661,14.465,14.465,0,0,0,1.066-1.646,23.861,23.861,0,0,0,2.5-6.323,36.749,36.749,0,0,0,8.323,5.693c4.318,2.172,8.693,4.191,13.741,3.622a1.431,1.431,0,0,1,1.161.476,43.953,43.953,0,0,0,3.439,2.849c2.127,1.505,4.2,3.177,7.056,3.37a35.209,35.209,0,0,0-1.166,4.532c-1.085-1.648-2.532-1.053-3.855-1.016l1.444.561c-2.259,1.561-2.527,2.982-1.05,4.6.593.653,1.386.653,2.085.955Zm3.73,35.167a39.57,39.57,0,0,1-4.154,6.088,1.642,1.642,0,0,1-.521-2.1,32.617,32.617,0,0,0,1.661-5.767,4.068,4.068,0,0,1,2.751-3.267,35.026,35.026,0,0,0,9.553-6.341,7.322,7.322,0,0,0,.815,1.14c.233.225.542.674.976.27,1.32-1.23,3.011-1.889,4.46-2.913,4.871-3.44,10.334-4.082,16-3.127,5.111.86,9.6,3.312,13.868,6.191,3.661,2.468,4.394,6.021,3.86,10.048-.248,1.878-1.743,2.915-2.96,4.193-1.294,1.36-2.638,1.471-4.347,1.352a54.356,54.356,0,0,0-9.754.063A72,72,0,0,0,380.61,157.3c-4.873,2.064-9.19,4.844-11.971,9.542a3.076,3.076,0,0,0-.606,2.455c3.749-3.622,7.395-7.114,12.4-9.074a35.169,35.169,0,0,0-2.109,11.611,41.872,41.872,0,0,0,2.968,15.791,59.487,59.487,0,0,0,11.135,18.913c.46.521,1,1.532,1.368,1.473,1.1-.172,1.077.551,1.278,1.132a116.028,116.028,0,0,0,11.354,22.977,43.573,43.573,0,0,0,8.524,10.093c3.069,2.672,5.156,5.791,5.4,10.053a47.09,47.09,0,0,0,1.331,9.474c1.185,4.413,3.889,7.7,9.135,6.823.741-.124.757.376.894.831a55,55,0,0,1,1.725,6.291c.778,4.466,2.6,8.646,4.1,12.908a95.694,95.694,0,0,1,4.444,15.45,30.24,30.24,0,0,0-7.8-1.259,77.073,77.073,0,0,0-13.627.741c-3.659.606-7.365.9-11.032,1.466a124.071,124.071,0,0,1-12.545,1.207,42.059,42.059,0,0,1-10.812-1.011,68.539,68.539,0,0,1-16.016-5.317c-1.4-.683-2.82-1.434-3.032-3.315a.687.687,0,0,0-1.143-.51c-.262.2-.315.892-.828.392-.616-.6-1.862-.418-1.952-1.664-.156-2.156.621-4.132,1.2-6.13,1.4-4.849,3.217-9.577,4.46-14.474a66.247,66.247,0,0,0,1.571-10.648,46.07,46.07,0,0,0-.5-12.334c-.571-3.122-1.349-6.2-2.191-9.27-2.273-8.3-2.873-16.857-3.733-25.365-.4-4.014-.929-8.008-1.487-12-.719-5.162-1.428-10.334-1.651-15.53a109.741,109.741,0,0,1,.7-19.228c.878-6.569,2.524-12.858,5.939-18.609a6.587,6.587,0,0,0,1.113-4.736Zm104.637,99.763c0,.876.029,1.754-.008,2.627-.061,1.434-.455,1.865-1.891,1.825-4.862-.132-9.342,1.317-13.715,3.236-5.937,2.608-11.413,5.826-14.99,11.508a.707.707,0,0,1-.886.355c-3.257-.918-6.532-.6-9.8-.074a4.148,4.148,0,0,1-4.677-2.127,10.936,10.936,0,0,1-1.209-3.042,80.993,80.993,0,0,1-1.01-9,15.723,15.723,0,0,0-4.643-9.971,74.555,74.555,0,0,1-5.548-6.313,102.961,102.961,0,0,1-7.164-10.7,91.119,91.119,0,0,1-8.852-18.995c-1.606-4.86-2.775-9.847-4.2-14.757a197.713,197.713,0,0,1-4.474-19.96,5.253,5.253,0,0,1,.011-1.971,29.278,29.278,0,0,1,6.193-12.587,1.793,1.793,0,0,1,1.312-.77,96.192,96.192,0,0,1,10.1-.365,14.026,14.026,0,0,0,3.675-.132,1.576,1.576,0,0,1,1.682.46,108.533,108.533,0,0,1,8.55,11.479,127.249,127.249,0,0,1,7.08,13.948,147.951,147.951,0,0,0,10.238,19.27,160.015,160.015,0,0,0,13.209,17.556,69.165,69.165,0,0,0,7.183,7.36c2.966,2.526,6.127,4.817,9.185,7.236,1.879,1.487,3.7,3.077,4.008,5.64.325,2.744.545,5.5.632,8.273Zm-136.579-6.3c.674-4.415,1.108-8.8,1.384-13.206.032-.513-.222-1.109.767-1.087,2.307.05,3.791-1.31,4.934-3.151a2.587,2.587,0,0,1,.6-.836,5.929,5.929,0,0,0,2.995-4.981,10.043,10.043,0,0,0-1.489-6.556c-.445-.635-.839-1.257.4-1.78a6.827,6.827,0,0,0,3.992-4.6c.262-.889.056-2.431.926-2.508.765-.066,1.643,1.1,2.457,1.741a2.667,2.667,0,0,0,1.714.839c1.953-.1,1.953-.117,2.066,1.778.016.262,0,.529.037.788.751,5.852,1.6,11.691,2.23,17.556a135.058,135.058,0,0,0,2.209,15.053c.992,4.471,2.14,8.908,3.278,13.344.27,1.053.185,1.7-.937,2.153a4.1,4.1,0,0,0-1.8,1.653c-2,3.127-1.638,7.961,1.91,10.051a2.239,2.239,0,0,1,1.167,2.68,73.352,73.352,0,0,1-1.685,7.791c-1.629,5.738-4.024,11.283-4.371,17.344-.026.474-.312.637-.791.683a48.356,48.356,0,0,0-7.693,1.629,68.389,68.389,0,0,1-8.209,1.675c-.412.056-1.066.378-1.206-.3-.135-.651-.484-1.225-.579-1.863a6.245,6.245,0,0,0-3.556-4.592c-.778-.431-1.614-.693-2.214.423a1.118,1.118,0,0,1-1.4.439,1.656,1.656,0,0,0-2.029.91,1.807,1.807,0,0,1-1.373,1.183,2.067,2.067,0,0,0-1.624,2.066c.172,1.6-.547,1.135-1.452,1.013-3.587-.476-5.619-2.614-6.548-5.963a22.055,22.055,0,0,1-.73-6.765c.023-.648.236-.777.852-.8,2.058-.074,4.746-2.532,4.952-4.632a10.908,10.908,0,0,0-1.672-7.669,1.989,1.989,0,0,1-.148-2.341c2.436-5.085,5.415-9.892,7.667-15.074,1.042-2.4,2.81-4.4,3.944-6.773,2.743-5.722,5.148-11.6,7.693-17.405.161-.37.341-.725-.2-1.135q-3.254,5.639-6.476,11.225Zm-8.117-71.774a50.165,50.165,0,0,1,3.873,4.09,37.082,37.082,0,0,1,6.109,8.487,2.091,2.091,0,0,1,.225,1.373c-.349,2.6-.743,5.2-.9,7.82-.532,8.9-1.981,17.7-2.6,26.59-.341,4.852-.9,9.69-1.405,14.529a57.679,57.679,0,0,1-1.41,8.55c-1.92,7.45-5.407,14.267-8.838,21.072a74.059,74.059,0,0,0-5.815,14.625c-1.312,5.027-1.42,9.984.728,14.831a32.457,32.457,0,0,1,1.68,3.688,8.227,8.227,0,0,0,3.543,4.971,25.2,25.2,0,0,0,6.9,2.577,3.039,3.039,0,0,1-1.423.018c-1.942-.476-1.947-.468-2.953,1.262-.373.643-.735,1.293-1.1,1.942-.2.349-.312.6-.889.447-3.638-.979-7.3-1.873-10.942-2.815-.407-.106-.9-.487-1.125.05s.468.545.767.68a78.236,78.236,0,0,0,10.085,3.72c.7.209.834.3.5,1a70.451,70.451,0,0,1-3.863,6.225c-1.593,2.621-3.257,2.979-6.031,2.177-4.672-1.352-9.6-1.547-14.35-2.614-.91-.2-1.206-.632-1.172-1.4a40.921,40.921,0,0,1,.622-6.653,76.842,76.842,0,0,1,3.915-11.717,23.916,23.916,0,0,0,9.741,5.939,11.768,11.768,0,0,0,5.64.844c.487-.069,1.272.1,1.312-.548a1.5,1.5,0,0,0-1.079-1.344c-.283-.1-.571-.193-.86-.283-4.672-1.463-9.405-2.754-13.662-5.315-.64-.386-.625-.58-.4-1.167,2.019-5.151,3.931-10.347,6.016-15.471,2.661-6.545,5.074-13.178,7.4-19.847a196.445,196.445,0,0,0,8.524-33.574c.987-6.135,1.958-12.273,2.719-18.442a120.616,120.616,0,0,0,1.278-15.434c-.019-3.556.005-7.114-.133-10.664a84.875,84.875,0,0,0-.635-10.217Zm35.2-24.54c-.836,1.921-1.576,3.638-2.336,5.344-.124.278-.214.942-.595.622-.767-.638-1.73-.2-2.474-.664a3.4,3.4,0,0,0-3.3.011c-3.36,1.373-4.256,5.974-3.045,9.053a7.516,7.516,0,0,0,3.064,3.312c.7.495,1.214.968.757,1.989a22.76,22.76,0,0,0-1.085,3.349c-1.542,5.643-2.6,11.395-3.754,17.125-.609,3.021-.842,6.117-1.894,9.071a6.229,6.229,0,0,0-.577,2.46c.354,3.045-.609,5.863-1.233,8.733a3.269,3.269,0,0,1-2.376,2.852c-.627.159-.907.146-1.016-.492-.479-2.844-.8-5.709-1.1-8.579-.254-2.455-.185-4.915-.339-7.37a57.124,57.124,0,0,1-.191-7.585c.074-1.074.656-1.439,1.505-1.347,2.074.225,3.855-.254,5.027-2.037a5.7,5.7,0,0,0,1.373-3.087,13.361,13.361,0,0,0-.585-4.807c-.839-2.508-2.36-4.32-4.712-4.683-.592-.09-.439-.4-.394-.738.159-1.169.238-2.354.495-3.5,1.619-7.2,3.736-14.228,7.7-20.559.3-.484.9-.963.3-1.579a1.514,1.514,0,0,0-1.934-.082,7.165,7.165,0,0,0-2.651,2.7c-4.831,7.575-6.979,16.006-7.825,24.836-.275,2.873-.506,5.746-.984,8.759-.976-1.349-1.778-2.645-2.762-3.783a75.153,75.153,0,0,1-8.884-11.825c-1.381-2.418-2.656-4.976-4.918-6.921,3.3-2.386,5.59-5.717,8.318-8.63,1.434-1.529,2.638-3.418,4.423-4.434,4.262-2.423,8.756-4.511,13.876-3.561,2.574.476,5.069,1.389,7.654,2.117a2.53,2.53,0,0,0,1.06,4.182,9.2,9.2,0,0,0,5.408-.251ZM489.408,412.747a14.915,14.915,0,0,0-.135-4.767c-.423-3.572-1.034-7.109-1.8-10.622-.489-2.243-1.119-4.447-1.8-6.64-.106-.341-.876-.714-.307-1.008.325-.167.989.212,1.336.659a3.581,3.581,0,0,1,.566.717c.54,1.3,1.122,2.582,1.529,3.921.474,1.558.923,3.143,1.437,4.672a48.7,48.7,0,0,1,1.839,7.458,56.459,56.459,0,0,1,.645,7.027,79.519,79.519,0,0,1-.487,8.9,40.192,40.192,0,0,1-1.175,6.585,31.763,31.763,0,0,1-2.683,7.587,5.467,5.467,0,0,1-4.286,2.744c-2.114.333-4.158-2.619-4.024-4.566s.133-3.881.381-5.834a29.237,29.237,0,0,0,.05-6.053c-.3-3.685-.833-7.174-3.307-10.1a2.662,2.662,0,0,1-.341-.839c-.143-.407.05-.619.434-.521a15.165,15.165,0,0,0,4.3.085,1.684,1.684,0,0,0,1.463-.63c.153-.31-.233-.958-.818-1.238a1.664,1.664,0,0,0-1.164-.3c-1.437.244-2.918,0-4.368.365-.312.077-1.257.344-1.135-.807a2.377,2.377,0,0,0-.344-1.428c-.378-.535-.3-.558.315-.532a12.337,12.337,0,0,0,3.81.021c.373-.1.82-.183.632-.746-.156-.471-.447-.3-.828-.23-1.257.212-2.54.273-3.8.476-.315.05-.442.106-.574-.22a20.6,20.6,0,0,1-1.278-2.934c-.074-.309-.016-.624.286-.59a18.436,18.436,0,0,0,2.357-.3,4.954,4.954,0,0,0,3.685-1.873,4.539,4.539,0,0,0,.542-4.106,12.755,12.755,0,0,0-5.868-7.053c-.849-.539-1.77-.963-2.995-1.622,1.159,0,1.953.05,2.736-.008a44.073,44.073,0,0,1,8.659.447.872.872,0,0,1,.855.7c.185,1.582.918,3.053,1.182,4.547.376,2.1,1.082,4.106,1.534,6.175q.825,3.778,1.714,7.551c.36,1.526.174,3.183,1.228,4.934ZM381.566,88.938a19.223,19.223,0,0,0,2.622-.347c1.066-.286,1.6.878,2.526.789.889-.085,1.185.222,1.016,1.1a2.7,2.7,0,0,0,.061,1.18c.529,1.9.309,4.061,2.243,5.445a3.8,3.8,0,0,1,1.661,2.259,2.005,2.005,0,0,0,.876,1.717,3.717,3.717,0,0,1,1.233,1.638,17.15,17.15,0,0,1,1.473,8.667c-.529,6.611-6.259,9.664-11.212,9.683a13.432,13.432,0,0,1-12.2-8.479c-.133-.368-.291-.548.159-.825a2.313,2.313,0,0,0,.857-2.81c-.259-.863-.458-2.288-1.654-2.2-1.037.074-.921-.148-.712-.841.162-.542.222-1.114.4-1.653,1.418-4.405,4.468-7.313,8.6-9.212a1.837,1.837,0,0,1,.333,1.034c.013.331-.124.825.344.876.436.047.638-.347.738-.778a19.4,19.4,0,0,0,.635-7.236ZM246.291,434.793c.669-.238.973.3,1.442.45,2.238.73,4.5,1.418,6.688,2.275,3.264,1.281,6.431,2.852,9.955,3.3a3.386,3.386,0,0,1,2.76,1.929,3.166,3.166,0,0,0,.418.648c.132.145.323.392.542.2.172-.151.383-.373.267-.661-.146-.362-.312-.717-.487-1.063-.106-.209-.22-.495.087-.508.863-.037,2.1-.347,2.527.093,1.826,1.889,3.91,3.542,5.457,5.693.175.241.249.587.688.453a4.1,4.1,0,0,0-.058-1.265c-.36-1.9-1.6-3.246-2.738-4.669-.2-.254-.54-.508-.362-.833.394-.717,2.474-.892,2.876-.243,1.876,3.032,4.058,5.9,4.651,9.582a1.867,1.867,0,0,0,1.9,1.5,14.074,14.074,0,0,1,6.191,1.664c.521.3.7.571.513,1.116-1.045,3.127-2.011,6.28-3.164,9.366-.389,1.043-.452,2.3-1.41,3.1a33.033,33.033,0,0,0-6.6-3.753,68.305,68.305,0,0,1-8.934-5.563c-2.7-1.831-5.395-3.72-8.109-5.534a83.314,83.314,0,0,1-6.894-4.929,40.384,40.384,0,0,1-6.815-6.923,8.182,8.182,0,0,1-1.913-4.254c4.91,4.876,10.7,8.161,16.177,11.9,5.505,3.757,10.818,7.8,16.6,11.139-9.873-9.247-21.207-16.533-32.26-24.208Zm89.06-365.508a9.517,9.517,0,0,1,2.283-4.011,22.628,22.628,0,0,1,12.225-6.463,31.21,31.21,0,0,1,13.4-.177,40.178,40.178,0,0,1,10.053,4.3,25.922,25.922,0,0,1,9.333,7.9,16.214,16.214,0,0,0-7.32.386c-1.352.431-2.064.045-3.14-.717a33.253,33.253,0,0,0-21.4-6.386c-3.508.183-7.074.582-10.034,2.688a17.446,17.446,0,0,1-5.394,2.49ZM474.805,259.113c-8.953,3.113-16.9,7.492-23.3,14.495a33.994,33.994,0,0,0-6.235-6.794c-.545-.484-.535-.736-.04-1.3a41.848,41.848,0,0,1,11.54-8.749c.719-.4.841.024,1.1.511a16.939,16.939,0,0,0,3.6,5.04,1.076,1.076,0,0,0,.026-1.347,44.888,44.888,0,0,0-2.453-4.212c-.566-.794-.312-1.026.371-1.3a37.173,37.173,0,0,0,3.505-1.4c1.111-.577,1.648-.362,2.074.81a7.484,7.484,0,0,0,2.175,3.389c.167.135.341.307.582.217.365-.138.22-.445.159-.675-.215-.8-.458-1.587-.693-2.381a11.973,11.973,0,0,1-.609-2.124c-.087-.844.865-.63,1.169-.638.955-.027,2.225-1.185,2.778-.138a47.1,47.1,0,0,0,4.259,6.59ZM385.19,87.014v-.005c-.177,0-.352-.013-.529,0-3.812.3-6.69-1.029-8.2-5.543a8.011,8.011,0,0,0-2.2-3.9c-1.471-1.28-.8-2.992,1.079-3.548,2.95-.87,5.971-.77,8.99-.77.537,0,.775.339,1.066.656,3.119,3.392,4.384,7.606,5.32,11.966.169.783-.143,1.159-.963,1.148-1.521-.018-3.042-.006-4.564-.006ZM284.159,431.859c.548.079,1.069.132,1.582.23a18.368,18.368,0,0,1,7.479,2.852c.693.5,1.32,1.143.78,2.056a13.073,13.073,0,0,0-.9,2.222c-1.222,3.307-2.312,6.669-3.339,10.045-.227.751-.439.783-1.026.513a7.964,7.964,0,0,0-4.17-1.109c-.571.058-.412-.4-.439-.735a7.549,7.549,0,0,0-.76-3.228,15.488,15.488,0,0,0-4.235-4.979c-.169-.124-.608-.143-.23-.709,1.521-2.278,3.452-4.3,4.482-6.894.153-.386.529-.209.78-.262ZM437.982,305.476c1.19-.27,2.331.238,3.519.251a.71.71,0,0,1,.725.463.7.7,0,0,1-.354.783,55.148,55.148,0,0,1-13.027,7.5c-5.519,2.074-11.119,3.791-17.085,4.058-1.994.09-2.016.265-2.513-1.445-.124-.426-.2-.741.5-.868a22.318,22.318,0,0,0,4.923-1.421q9.651-4.194,19.313-8.37c1.278-.555,2.494-1.322,4.005-.955Zm29.633,82.793a4.672,4.672,0,0,1,1.22.733c3.169,1.876,6.4,3.781,7.354,7.733.548,2.28.442,3.518-2.135,4.037-1.754.352-3.444-.066-5.161-.019-.222.006-1.431,0-.81-1.122a3.623,3.623,0,0,0,.286-1.283,33.305,33.305,0,0,0-.757-10.079Zm-99.007-249.74c2.929-5.281,5-10.458,5.177-16.49.579.727,1.524.738,1.458,1.653a21.118,21.118,0,0,0,1.717,9.4c.111.28.331.51-.132.719-2.767,1.238-5.138,3.178-8.22,4.717Zm-12.288,51.059c-.847-.344-1.632-.183-2.389-.474-.572-.22-.751-.265-.617-1.019.86-4.847,2.048-9.622,3.053-14.437.423-2.026,1.043-4.011,1.572-6.013a115.662,115.662,0,0,0-1.617,21.942Zm97.242,1.881a1.3,1.3,0,0,1-1.637-1.064c-.116-.934.77-1.286,1.561-1.431.579-.106,2.061,1.219,1.913,1.778C455.191,191.532,454.379,191.439,453.561,191.469Zm2.81,5.8a4.647,4.647,0,0,1-2.143-.635.95.95,0,0,1-.55-.963c.042-.32.492-.421.81-.495a2.391,2.391,0,0,1,2.267.593c.434.373.651.674.542,1.172-.129.593-.651.222-.929.328ZM423.693,145.51a41.791,41.791,0,0,0,8.22,3.214C429.471,149.039,425.587,147.4,423.693,145.51ZM355.644,79.271c-2.987-1.8-6.177-3.185-9.238-4.818A27.287,27.287,0,0,1,355.644,79.271Zm102.8,123.238c.569.41,1.77-.074,2.008.878.323,1.291-1.048.532-1.55.947-.551.455-.921-.251-1.3-.574-.251-.214-.516-.412-.3-.868.254-.54.683-.217,1.148-.383ZM371.4,95.491c-3.225.035-5.757-1.711-8.341-3.323A67.1,67.1,0,0,0,371.4,95.491ZM339.985,203.646a14.917,14.917,0,0,0,.833,3.069c.609,1.672.518,1.807-1.352,1.841Q339.725,206.1,339.985,203.646ZM398.3,91.1c-1.2-2.146-2.288-4.1-3.529-6.331C396.336,85.552,398.516,89.546,398.3,91.1Zm3.392,35.4a16.731,16.731,0,0,0-4.331-8.939C399.51,118.647,401.921,123.5,401.7,126.5Zm-63.3,94.557c.688,1.122,1.8,1.005,2.873,1.262-.868.733-1.809,1.566-2.7,1.249-.609-.217-.191-1.495-.177-2.511Zm59.178-95.179a32.738,32.738,0,0,0-2.225-3.055C396.92,122.674,397.915,123.957,397.574,125.877Zm-59.76,6.514q-.508,2.131-1.019,4.265A5.7,5.7,0,0,1,337.814,132.391ZM364.4,97.047a3.773,3.773,0,0,1-1.693-1.519c-.1-.148.121-.36.3-.289a2.751,2.751,0,0,1,1.754,1.376c.085.212-.021.428-.357.434ZM350.364,78.681a10.692,10.692,0,0,1-2.87-1.68A3.691,3.691,0,0,1,350.364,78.681ZM336.158,132a6.281,6.281,0,0,1-.638,2.91A3.552,3.552,0,0,1,336.158,132Z" transform="translate(-242 -55)"/>
      <path id="Path_4436" data-name="Path 4436" d="M653.036,470.459c-.376,2.053.524,3.122,2.571,3.1a.371.371,0,0,0,.133,0c3.05-1.262,5.706.246,8.257,1.444,3.5,1.646,6.23.585,8.823-1.735.355-.318.722-.86,1.172-.27,1.225,1.6,2.82,1.355,4.371.852.751-.243,2.1-.312,1.976-1.3-.079-.63-1.439-.656-2.217-.548-1.569.217-2.079-.492-2.611-1.894a54.364,54.364,0,0,1-3.315-11.638,55.825,55.825,0,0,1-.333-9.982c.087-2.259.037-2.259,2.111-2.95.534-.177,1.069-.354,1.587-.568s1.008-.468,1.64-.765c-.738,3.236.654,6.029,1.32,9.053a3.544,3.544,0,0,0-2.868.561,1.739,1.739,0,0,0,2.156,1.225c.953-.151,1.36.18,1.54,1.222.151.868-.061,1.868.648,2.688,1.2-1.013.937-2.381.8-3.627a58.632,58.632,0,0,0-2.233-10.7,1.951,1.951,0,0,1-.024-1.291c1.688-3.4,3.532-6.7,7.4-8.069a48.84,48.84,0,0,0,4.945-1.653,9.387,9.387,0,0,0,4.907-6.307,2.426,2.426,0,0,0-.637-2.418,1.584,1.584,0,0,1-.328-1.889,17.109,17.109,0,0,1,2.249-3.622c.976-1.473,2.3-2.81,2.037-4.82-.064-.481-.077-1.085-.534-1.23-.662-.212-.667.529-.868.907-1.325,2.5-3.4,4.45-4.992,6.767a7.268,7.268,0,0,0-1.206,6.677c.368,1.18-.153,2.008-1.5,2.458-1.706.572-3.5.836-5.183,1.495a9.138,9.138,0,0,0-4.014,3.114c-1.669,2.241-3.415,4.482-4.042,7.3-.138.622-.421.807-1.032.892-2.005.28-3.865,1.209-5.99,1.106-.984-.048-1.553.992-1.823,2.005a18.84,18.84,0,0,0-.566,5.609c.029.783-.2,1.055-.95,1.392-5.413,2.415-9.878,5.934-12.561,11.376a14.806,14.806,0,0,0-.751,2.206,6.255,6.255,0,0,1-1.072,2.693c-.95,1.084.407.957,1,1.124Zm.59-2.807c3.2-5.664,8.2-9.35,13.7-12.67a12.775,12.775,0,0,1,.331,1.473,37.654,37.654,0,0,0,3.992,13.474c.262.526,1.357.981.611,1.693a3.785,3.785,0,0,1-1.953.582,4.407,4.407,0,0,1-1.437-.106,41.808,41.808,0,0,1-4.743-.955c-2.042-.624-3.961.643-6.043.093-1.69-.447-1.86-.352-1.079-1.987a2.373,2.373,0,0,1,1.381-1.315,3.922,3.922,0,0,0,2.082-1.31c.275-.4,1.09-.561.733-1.209-.339-.616-.981-.306-1.534-.185a28.817,28.817,0,0,0-6.035,2.418Z" transform="translate(-619.705 -260.146)"/>
      <path id="Path_4437" data-name="Path 4437" d="M580.617,1013.507c1.455.291,3.445-.624,5.513-.9,2.9-.389,5.8-.086,8.685-.248a18.332,18.332,0,0,0,5.267-.838c.748-.269,1.606-.457,1.907-1.445.191-.624.839-.329,1.275-.333a30.208,30.208,0,0,0,9.667-1.342,4.084,4.084,0,0,0,2.381-1.5c.27-.423.6-.8.3-1.3-.31-.513-.847-.4-1.315-.3-1.579.308-3.172.53-4.762.774a54.144,54.144,0,0,1-6.445.222c-.532.021-1.111-.055-1.457.419-1.207,1.654-2.992,1.522-4.646,1.372a40.479,40.479,0,0,0-14.31,1.086c-4.064,1.09-8.265.859-12.429.821-.219,0-.439-.017-.659-.03-.777-.043-1.106.564-1.288,1.107-.254.761.524.821.966.949a49.566,49.566,0,0,0,11.344,1.487Z" transform="translate(-500.613 -599.064)"/>
      <path id="Path_4438" data-name="Path 4438" d="M351.75,986.09a5,5,0,0,0,6.185,2.995,4.12,4.12,0,0,1,3.966.386c1.767,1.2,3.574.788,5.013-.82a1,1,0,0,1,1.474-.2,10.413,10.413,0,0,0,2.712,1.535c.283.066.672.177.836-.138a1,1,0,0,0-.106-.743,5.568,5.568,0,0,0-4.738-2.5,2.49,2.49,0,0,0-2.056,1.2,1.278,1.278,0,0,1-2.056.5,4.971,4.971,0,0,0-4.654-.545c-2.029.825-3.627.19-5.219-1.011C352.734,986.455,352.38,985.941,351.75,986.09Z" transform="translate(-164.313 -588.096)"/>
      <path id="Path_4439" data-name="Path 4439" d="M700.725,524.592a5.65,5.65,0,0,0-2.6,1.473c-.315.386-.442.775.14,1.043.91.418,2.968-.534,3.333-1.534.28-.772.122-1-.875-.984Z" transform="translate(-642.002 -323.871)"/>
      <path id="Path_4440" data-name="Path 4440" d="M693.4,534.834a6.937,6.937,0,0,0,4.77-.839C696.138,532.85,694.892,534.44,693.4,534.834Z" transform="translate(-636.544 -329.023)"/>
      <path id="Path_4441" data-name="Path 4441" d="M437.683,598.812a64.141,64.141,0,0,0-18.881,3.532,36.714,36.714,0,0,1-12.682,2.257,52.88,52.88,0,0,1-16.31-3.429c-.434-.159-.8-.519-1.243.061-.614.794-.151,1.143.463,1.532a40.484,40.484,0,0,0,10.276,4.278,26.05,26.05,0,0,0,9.738,1.177c4.534-.384,8.791-1.9,13.106-3.19a61.816,61.816,0,0,1,21.029-2.76c1.352.071,2.693.349,4.04.511.264.032.6.341.8-.1.143-.315-.026-.577-.185-.854-.8-1.4-2.265-1.77-3.616-2.146A28.694,28.694,0,0,0,437.683,598.812Z" transform="translate(-256.023 -366.368)"/>
      <path id="Path_4442" data-name="Path 4442" d="M440.492,504.78c.053,1.632,1.286,2.4,2.077,3.439.407.535,1.325.815.78,1.826-.151.28.288.733.661.548.794-.4,1.169.23,1.55.6a117.578,117.578,0,0,0,20.651,15.773c.608.37.542.645.312,1.114-.484.984-.958,1.971-1.447,2.952-.272.547-.764,1.22-.071,1.627a2.124,2.124,0,0,0,2.209.254,4.363,4.363,0,0,0,1.418-1.683,7.149,7.149,0,0,0,.45-.8c1.69-3.458,1.413-2.714-1.175-4.926-.524-.45-.64-.7-.3-1.262a10.089,10.089,0,0,0,1.307-5.521c-.034-2.27.244-4.547-.4-6.8-1.328-4.646-4.662-6.9-9.127-7.879a15.513,15.513,0,0,0-8.236-.023c-1.667.532-2.875,1.749-4.285,2.659a1.585,1.585,0,0,0-.193.177c-.979.884-1.915,1.252-2.989.056a7.437,7.437,0,0,0-3.193-2.127Zm6.019,4.413c1.349-.8,2.408-1.9,3.8-2.558,2.958-1.392,5.889-.7,8.8.064,3.1.812,5.6,2.442,6.809,5.566,1.466,3.772.99,7.625.354,11.468-.106.632-.5.14-.637.051-.945-.635-1.852-1.323-2.778-1.987-5.572-4-11.043-8.132-16.355-12.6Z" transform="translate(-300.416 -311.778)"/>
      <path id="Path_4443" data-name="Path 4443" d="M521.848,348.976c-.116,6.833,1.41,13.424,3,19.995,1.421,5.857,3.3,11.606,4.315,17.559a31.222,31.222,0,0,1,.632,5.325,5.627,5.627,0,0,0,.024.923c.106.656.331,1.582.931,1.569.9-.019.59-1.005.611-1.6.246-7.207-1.151-14.22-2.564-21.228-1.331-6.587-3.05-13.1-3.944-19.773-.378-2.82-.577-5.664-.894-8.492-.077-.672.069-1.791-.741-1.8-.886-.008-.894,1.148-1.066,1.881a27.163,27.163,0,0,0-.3,5.643Z" transform="translate(-396.442 -219.013)"/>
      <path id="Path_4444" data-name="Path 4444" d="M504.112,397.712a65.906,65.906,0,0,0,1.984,6.579c1.474,4.336,2.9,8.688,4.066,13.119.106.4.045,1.069.558.957s.815-.611.68-1.346a106.946,106.946,0,0,0-3.548-13.9,37.3,37.3,0,0,0-2.371-5.8c-.209-.395-.41-.709-.857-.643-.5.074-.532.506-.51,1.035Z" transform="translate(-368.896 -250.626)"/>
      <path id="Path_4445" data-name="Path 4445" d="M370.18,508.541c-.46-3.836-.683-7.725-2.423-11.281a7.874,7.874,0,0,0-3.169-3.733c-1.14-.616-1.754-.323-2.164.9-.489,1.455.1,2.757.648,4.019a15.793,15.793,0,0,0,2.9,4.506,6.856,6.856,0,0,1,1.524,4.066c.087.558.225,1.116.267,1.674.082,1.058.468,2.151,1.545,2.043,1.026-.1.759-1.365.873-2.2Zm-5.68-12.662a11.262,11.262,0,0,1,1.892,5.553A10.705,10.705,0,0,1,364.5,495.879Z" transform="translate(-167.005 -305.907)"/>
      <path id="Path_4446" data-name="Path 4446" d="M451.023,317.907c-6.439.8-12.931,1.4-18.807,4.532a17.332,17.332,0,0,0-3.288,2.4.876.876,0,0,0-.283,1.066c.191.386.532.124.794-.008,5.474-2.772,11.54-3.524,17.371-5.077a26.893,26.893,0,0,0,4.963-1.561c.463-.225,1.291-.3,1.063-1.069-.167-.566-.847-.18-1.286-.275a2.486,2.486,0,0,0-.527-.006Z" transform="translate(-278.044 -205.513)"/>
      <path id="Path_4447" data-name="Path 4447" d="M385.118,459.558a67.165,67.165,0,0,0-8.315,23.289l.648.235c1.685-8.167,6.008-15.368,8.389-23.281C385.6,459.72,385.359,459.638,385.118,459.558Z" transform="translate(-188.887 -286.636)"/>
      <path id="Path_4448" data-name="Path 4448" d="M562.3,476.172c.434,2.04.929,4.3,3.185,5.619.669.392,1.254.923,1.894,1.368,1.826,1.267,3.672.99,5.394-.484a19.233,19.233,0,0,0,3.188-3.106,1.79,1.79,0,0,0,.471-1.252c-.619-2.023-.511-4.325-1.939-6.04a8.661,8.661,0,0,0-5.627-2.791c-3.365-.495-5.317,1.013-6.111,4.426a7.845,7.845,0,0,0-.458,2.262Z" transform="translate(-458.793 -292.268)"/>
      <path id="Path_4449" data-name="Path 4449" d="M576.058,578.445c2.487-.109,3.963-1.807,5.445-3.49.082-.093.071-.283.161-.346,1.68-1.162,1.079-2.513.346-3.889a8.363,8.363,0,0,1-.392-2.135c-.386-1.656-1.59-2.439-2.77-3.291-1.429-1.032-3.217-1.185-4.847-1.569-2.032-.479-4.545,2.241-5,4.444a11.214,11.214,0,0,0-.217,3.453c.227,2.423,1.682,3.778,3.51,4.981,1.172.773,2.151,1.926,3.757,1.844Z" transform="translate(-467.832 -346.247)"/>
      <path id="Path_4450" data-name="Path 4450" d="M611.254,519.949c-.357-2.738-.8-5.434-3.246-7.275a2.275,2.275,0,0,0-3.439.19,1.286,1.286,0,0,1-.971.27c-.352.018-.931-.119-1.022.037-1.05,1.815-3.9,1.91-4.135,4.646-.095,1.106-.957,2.174-.434,3.418a5.5,5.5,0,0,0,.6,1.307,17.474,17.474,0,0,0,4.286,3.669c2.82,1.831,7.41-.553,8.074-3.9A6.085,6.085,0,0,0,611.254,519.949Z" transform="translate(-508.823 -316.651)"/>
      <path id="Path_4451" data-name="Path 4451" d="M580.3,151.408c2.4-.677,5.159.05,7.918-.006.463-.01,1.185.347,1.339-.412a1.476,1.476,0,0,0-.939-1.69,12.653,12.653,0,0,0-4.172-1.005,18.393,18.393,0,0,0-4.7-.09c-1,.148-2.045.148-2.106,1.449-.05,1.127.889,1.77,2.667,1.754Z" transform="translate(-478.485 -108.298)"/>
      <path id="Path_4452" data-name="Path 4452" d="M608.737,185.805a2.394,2.394,0,0,0,1.273,1.891c.995.429,1.973,1.01,3.087.381.457-.259.606-.624.159-1.055-.222-.212-.434-.434-.648-.654-1.222-1.241-1.19-1.183.315-2.013.635-.349,1.767-.807,1.482-1.558-.37-.973-1.439-.373-2.182-.15a5.668,5.668,0,0,0-2.9,1.894A2.566,2.566,0,0,0,608.737,185.805Z" transform="translate(-516.632 -127.864)"/>
      <path id="Path_4453" data-name="Path 4453" d="M582.706,168.319a4.39,4.39,0,0,0,1.926,3.2c1.008.437,1.341-.121,1.378-.918a6.061,6.061,0,0,0-1.029-3.794,1.582,1.582,0,0,0-1.365-.817c-.712.034-.547.767-.8,1.175-.241.389-.014.777-.112,1.156Z" transform="translate(-477.072 -118.547)"/>
      <path id="Path_4454" data-name="Path 4454" d="M594.426,210.917a5.728,5.728,0,0,0-2.362.286c-.315.087-2.293-2.364-2.335-2.028a14.7,14.7,0,0,0,2.013,3.483,6.953,6.953,0,0,0,5.053.286c.32-.193,3.71-3.5,3.57-3.769-.267-.518-3.678,1.814-4.424,1.75C595.463,210.885,594.979,210.917,594.426,210.917Z" transform="translate(-491.866 -144.251)"/>
      <path id="Path_4455" data-name="Path 4455" d="M558.456,180.2c-.273-1.728-.5-3.3-.775-4.871-.079-.455-.217-1.217-.667-1.119-.64.14-.365.865-.265,1.36.225,1.109.465,2.212.736,3.31A1.553,1.553,0,0,0,558.456,180.2Z" transform="translate(-438.356 -123.251)"/>
      <path id="Path_4456" data-name="Path 4456" d="M494.826,168.994c0-1.008.032-2.018-.006-3.026-.108-2.9,4.048-8.881,7.757-9.246,1.175-.116,2.363-.08,3.537-.283.547-.1,1.431-.024,1.473-.495.071-.77-.817-.944-1.442-1.055-5.971-1.053-8.13-.114-11.27,5.177C493.172,162.936,493.992,166,494.826,168.994Z" transform="translate(-360.681 -111.974)"/>
      <path id="Path_4457" data-name="Path 4457" d="M491.854,189.218a4.116,4.116,0,0,0,3.1-1.116c.318-.3.487-.672.217-1.045s-.648-.156-.944.011a2.013,2.013,0,0,1-2.408.137,1.587,1.587,0,0,0-1.841.072c-.386.248-.3.735-.146,1.084a1.522,1.522,0,0,0,1.622.852c.133-.005.262,0,.395,0Z" transform="translate(-346.613 -130.495)"/>
      <path id="Path_4458" data-name="Path 4458" d="M506.054,175.947c.138-1.048-.352-1.452-.846-1.355-1.074.209-1.011,1.281-1.164,2.079-.079.41.124,1.132.725.96C505.7,177.362,505.848,176.4,506.054,175.947Z" transform="translate(-363.504 -123.466)"/>
      <path id="Path_4459" data-name="Path 4459" d="M484.151,178c.042.439.225.7.654.722.51.024,1.46-1.093,1.415-1.648-.026-.336-.169-.709-.51-.6A1.99,1.99,0,0,0,484.148,178Z" transform="translate(-335.151 -124.542)"/>
      <path id="Path_4460" data-name="Path 4460" d="M465.308,521.383c-.582,0-1.137.035-1.336.651a2.2,2.2,0,0,0,.151,2.235,6.663,6.663,0,0,0,4.005,2.048c1.093.235,1.878-1.238,1.254-2.318A5.346,5.346,0,0,0,465.308,521.383Zm-.294,2.206a3.967,3.967,0,0,1,3.545,1.394A4.39,4.39,0,0,1,465.014,523.589Z" transform="translate(-309.811 -322.035)"/>
      <path id="Path_4461" data-name="Path 4461" d="M451.4,530.327c.04.413.3.772.656.635.8-.307.99-1.111,1.156-1.855.087-.389-.164-.791-.556-.7-.971.23-.928,1.217-1.259,1.918Z" transform="translate(-288.157 -326.051)"/>
      <path id="Path_4462" data-name="Path 4462" d="M477.051,515.912c-.463.058-1.087.082-1.082.666.005.871.875.36,1.312.6.357.2.828-.18.809-.582C478.067,516.044,477.616,515.824,477.051,515.912Z" transform="translate(-323.524 -318.892)"/>
    </g>
  </svg>