<svg xmlns="http://www.w3.org/2000/svg" width="347.82" height="355.34" viewBox="0 0 347.82 355.34">
    <g id="Group_4299" data-name="Group 4299" transform="translate(-42.18 -2362.115)">
      <g id="Group_4298" data-name="Group 4298" transform="translate(-17.5)">
        <g id="Growth" transform="translate(72.759 2362.115)">
          <path id="Path_4687" data-name="Path 4687" d="M394.461,444.61v1.714c-.544,1.869-1.039,3.755-1.645,5.6-.866,2.631-1.911,5.173-4.182,6.98-1.569,1.247-3.025,2.655-4.686,3.759a35.321,35.321,0,0,1-4.076,1.889c-1.054.516-2.049,1.156-3.09,1.7-2.662,1.4-5.7,1.721-8.422,3.088-1.637.828-3.729.758-5.621,1.06a5.014,5.014,0,0,1-1.9.1,12.514,12.514,0,0,0-5.752-.024,7.979,7.979,0,0,1-3.137.2c-3.2-.634-6.362-1.482-9.551-2.185a15.447,15.447,0,0,0-6.733-.024,21.8,21.8,0,0,1-7.953.713,15.194,15.194,0,0,0-5.085.422c-2.754.488-5.48,1.368-8.244,1.492-3.1.142-6.219-.409-9.335-.589-3.157-.184-6.322-.464-9.474-.377-4.365.121-8.722.537-13.081.859-1.029.073-2.049.3-3.077.37-.769.052-1.693.319-2.115-.693-.383-.918-.909-.98-1.639-.395-.407.322-.828.834-1.275.872-1.971.17-3.956.27-5.936.253a14.98,14.98,0,0,1-3.772-.454c-1.387-.377-2.471.481-3.7.672-1.361.211-2.938.658-3.553,2.309a2.784,2.784,0,0,1-2.8,1.78,22.692,22.692,0,0,0-4.005.447c-4.852,1.163-9.836,1.215-14.746,1.88-2.79.377-5.589.7-8.39,1-1.339.145-2.689.256-4.037.274-1.2.014-2.4-.218-3.592-.177-1.809.066-3.615.246-5.42.426-3.4.339-6.791.734-10.19,1.059-.909.087-1.832,0-2.749,0-1.153,0-2.306.021-3.457.024a25.213,25.213,0,0,0-3.2.035c-1.693.229-3.309.474-4.513-1.167-.21-.287-.718-.346-.966-.62-.652-.717-1.7-1.465-1.746-2.251a8.059,8.059,0,0,0-1.23-3.438,1.641,1.641,0,0,0-.463-.509c-.5-.37-1.016-.734-1.549-1.06a2.565,2.565,0,0,0-1.007-.436c-1.1-.121-2.216-.187-3.324-.222a38.845,38.845,0,0,0-3.967,0c-2.184.159-4.359.457-6.54.654-.726.066-1.464,0-2.194,0-2.22-.007-4.445.045-6.663-.021-2.966-.094-5.928-.274-8.891-.422-3.656-.18-7.31-.377-10.966-.551-2.366-.114-4.732-.267-7.1-.284-2.561-.017-5.126.2-7.683.132-3.557-.1-7.108-.467-10.666-.568-3.585-.1-7.175-.045-10.762-.01-4.447.045-8.893.149-13.342.208-2.55.035-5.1.014-7.648.049-2.6.035-5.195.222-7.786.142-2.666-.083-5.328-.388-7.987-.627-.761-.066-1.513-.242-2.3-.374-.759,1.2-1.372,1.264-2.057.1a3.946,3.946,0,0,1-.321-1.195c-.219-1.042.176-1.451,1.271-1.534,1.492-.118,2.977-.326,4.487-.5-.673-2.5-1.29-4.821-1.939-7.136-.071-.255-.356-.673-.486-.654a4.786,4.786,0,0,1-3.041-.9c-.748-.4-1.17-.769-.9-1.721h4.55c-.191-1.136-.328-2.205-.57-3.251-.064-.283-.467-.729-.664-.7a2.946,2.946,0,0,1-2.565-.593c-.471-.388-1.007-.628-1.224-1.25v-.428c1.479-.309,2.957-.617,4.71-.982a24.2,24.2,0,0,0-.045-4.32c-.544-3.094.714-5.312,3.084-6.995a2.167,2.167,0,0,0,.926-2.1c-.06-2.124-.182-4.248-.328-6.369-.06-.872.321-1.1,1.121-1.11,2.158-.034,4.314-.137,6.725-.221-1.47-.831-2.636-1.455-3.767-2.139a7.41,7.41,0,0,1-3.127-3.847c-.169-.45-.364-1.219.446-1.245a14.121,14.121,0,0,1,3.274.289c1.076.223,2.1.681,3.154,1.009,2.1.654,4.353.728,6.369,1.706a.7.7,0,0,0,.636-.208,5.231,5.231,0,0,0,.8-1.427,7.141,7.141,0,0,1,3.191-4.269,9.459,9.459,0,0,1,1.472-.99,10.686,10.686,0,0,1,3.74-.98,5.806,5.806,0,0,0,3.069-.876,6.214,6.214,0,0,1,1.258-.405c.212-.056.474.017.66-.075a16.794,16.794,0,0,1,7.449-1.517c1.408-.017,2.818,0,4.3,0,1.657-7.239,4.64-13.773,7.241-20.764-.319-.242.27-.458-.011-.656s-.563-.388-.859-.559a1.259,1.259,0,0,1-.321-2.006c3.418-3.426,4.333-7.807,6.142-12.149.838-2.012,2.171-4.177,3.041-6.172a51.227,51.227,0,0,0,3.184-9.069c.315-1.38.771-2.868,2.28-3.4.63-.223-.366-.495-.159-1.042.367-.968.712-1.948,1.153-2.882.249-.525,1.9-1.027,2.315-1.438.675-.671,1.251-1.219.613-2.308a4.42,4.42,0,0,1-.459-3.42c.523-2.019,1.905-3.03,3.847-2.7.986.169,1.961.394,2.668.538.506-.949.973-1.8,1.421-2.668,1.431-2.769,2.807-5.568,4.3-8.306,1.29-2.372,2.715-4.672,4.07-7.01,2.407-4.155,3.716-8.859,6.6-12.8,1.661-2.268,2.932-4.818,4.4-7.231.949-1.562,2-3.065,2.882-4.663.765-1.389,1.288-2.91,2.034-4.312,2.36-4.432,5.529-8.373,7.65-12.972,1.71-3.709,3.8-7.247,5.807-10.815a7.965,7.965,0,0,1,3.635-3.81c1.17-.491,2.509-.594,3.654-1.129a14.969,14.969,0,0,1,9.759-.945c1.309.276,2.657.368,3.986.546l.071-.3c-.829-.362-1.644-.767-2.492-1.078a13.487,13.487,0,0,1-5.85-3.765,8.513,8.513,0,0,1-.557-10.4,22.448,22.448,0,0,1,8.851-7.591c1.472-.714,3.823-.47,5.473-.139a22.107,22.107,0,0,0,7.9.122c1.155-.184,2.394-1.554,3.341-.559.923.969,1.993,3.512,3.167,4.552-.095-1.912.169-3.489-.658-5.049-2.171-4.1-4.181-8.276-6.307-12.4a2.7,2.7,0,0,0-1.2-.979c-2.3-1.151-4.5-2.377-4.957-5.263-.274-1.719-.54-3.442-.88-5.148a20.309,20.309,0,0,1-.339-8.48c.521-2.317,1.029-3.671,3.9-4.254a6.171,6.171,0,0,0,3.291-2.1c3.052-3.292,4.3-7.46,5.589-11.78-1.811,1.176-3.566,2.218-5.212,3.407-2.831,2.045-5.574,4.186-7.5,7.207-1.939,3.049-3.274,6.343-2.614,9.922.759,4.106,2.027,8.122,3.12,12.164.362,1.337.863,2.634,1.3,3.95l-.247.118a17.2,17.2,0,0,1-1.234-1.9,63.083,63.083,0,0,1-4.517-13.544,13.642,13.642,0,0,1-.152-6.279,20.765,20.765,0,0,1,7.188-11.24c2.947-2.462,6.18-4.575,9.271-6.866a36.185,36.185,0,0,0,5.218-4.22,18.056,18.056,0,0,1,3.718-2.833,33.261,33.261,0,0,1,8.677-3.388,38.346,38.346,0,0,1,11.174-1.772c2.623.038,5.255.034,7.867.24a40.69,40.69,0,0,1,6.391.994c1.511.366,2.876,1.316,4.384,1.721a15.713,15.713,0,0,1,7.544,4.357,43.339,43.339,0,0,1,3.069,3.506q4.452,5.834,8.8,11.752a15.354,15.354,0,0,1,2.544,7.079,11.635,11.635,0,0,1,.032,4.841,18.366,18.366,0,0,1-2.835,5.246c-1.931,2.662-4.078,5.167-6.163,7.717a2.4,2.4,0,0,0-.547,2.233,3.166,3.166,0,0,1-.219,1.922c-.671,1.389-4.078,2.111-5.375,1.248-1.2-.8-2.415-1.58-3.617-2.366-.236.277-.414.392-.446.538a16.746,16.746,0,0,1-3.3,6.431c-.971,1.292-1.747,2.846-2.981,3.8-1.892,1.466-2.053,3.589-2.788,5.141,1.609,1.123,3.135,2.029,4.464,3.165a8.743,8.743,0,0,0,3.765,2.248,91.532,91.532,0,0,1,9.022,2.833,4.563,4.563,0,0,1,3.125,4.4c.109,1.592.525,3.159.735,4.747a12.04,12.04,0,0,1,.075,2.469c-.092,1.211-.3,2.415-.416,3.334,2.263,1.449,4.331,2.72,6.335,4.083a21.3,21.3,0,0,1,2.664,2.231c1.3,1.243,2.619,2.486,3.791,3.849a11.272,11.272,0,0,1,2.377,3.5c2.184,6.659,4.194,13.372,6.249,20.071a11.175,11.175,0,0,0,5.6,6.489c1.644.926,3.474,1.5,3.83,3.787.167,1.069.191,1.729-.825,2.462-1.374.99-2.784,2.186-2.15,4.271.231.763.534,1.5.78,2.186-.294.161-.787.294-.8.474-.028.274.249.6.439.872a5.929,5.929,0,0,1,.771,1.014c.36.906.638,1.847.919,2.784a8.587,8.587,0,0,1,.641,2.522,4.806,4.806,0,0,0,1.4,3.382c.786.921,1.558,1.855,2.3,2.813a1.646,1.646,0,0,1,.191.778c.043.379.045.765.064,1.146-.394.285-.87.728-.8,1.065.111.57.45,1.361.9,1.541a3.36,3.36,0,0,1,1.556,1.517c.167.249.418.6.654.615a2.862,2.862,0,0,1,2.113,1.568c2.634,3.761,5.289,7.509,7.882,11.3,2,2.923,3.9,5.917,5.889,8.849a4.078,4.078,0,0,0,3.024,2.091c1.3.1,2.616.219,3.924.217a26.677,26.677,0,0,1,7.762.878,12.744,12.744,0,0,1,9.223,10.944,20.031,20.031,0,0,1-1.055,8.9,38.663,38.663,0,0,1-6.377,12.607c-1.414,1.753-2.885,3.465-4.19,5.3-1.224,1.715-1.087,2.094.576,3.356,1.943,1.474,1.873,3.722-.272,5.238-.189-.748-.369-1.455-.549-2.163l-.283-.021a3.03,3.03,0,0,0-.238.876c.034.769.167,1.534.221,2.306a29.11,29.11,0,0,0,.235,3.709,26.311,26.311,0,0,1,.358,7.445,6.031,6.031,0,0,1-.456,1.813c-1.1,2.593-2.287,5.147-3.341,7.757a15.6,15.6,0,0,0-.585,2.78c.585-.064.954-.107,1.164-.131.42.8.776,1.479.994,1.893a24.856,24.856,0,0,0,3.521-1.509c1.6-1,3.379-.78,5.092-1.022,1.046-.148,2.1-.216,3.143-.384,1.787-.287,3.562-.675,5.353-.915.881-.118,1.794.03,2.692,0,1.526-.047,3.054-.1,4.573-.223.907-.073,1.8-.272,2.7-.422,1.234-.208,2.46-.48,3.7-.619,1.792-.2,3.6-.244,5.39-.473,2.186-.279,4.363-.808,6.422.491a2.107,2.107,0,0,0,.776.311c2.244.354,3.549,2,4.84,3.6a4.351,4.351,0,0,1,.734,1.9c.173.966.132,1.971.284,2.944a13.813,13.813,0,0,0,.6,1.92Zm-248.64-23.734a8.075,8.075,0,0,0-.45-1.5c-.4-.778-.958-1.472-1.35-2.252-2.038-4.035-4.445-7.9-5.57-12.359-.2-.785.255-1.627-.364-2.368a1.782,1.782,0,0,1-.313-1.232c.122-1.084-.139-1.453-1.181-1.337-.806.09-1.584.232-1.674,1.3a2.2,2.2,0,0,1-.405.831c-2.308,3.849-4.605,7.7-6.939,11.54-1.166,1.916-2.329,3.763-1.23,6.17a3.7,3.7,0,0,0,2.55,2.214,8.391,8.391,0,0,1,2.259.058c2.087.823,4.22.5,6.346.514s4.226.013,6.335.1c.941.038,1.869.317,2.811.39.33.026.681-.247,1.025-.382-.142-.3-.206-.7-.439-.878a9.836,9.836,0,0,0-1.406-.806ZM283.413,215.733c1.459-1.781,2.535-3.577,2.567-5.72a21.456,21.456,0,0,0-.611-4.462c-.6-3.011-2.51-5.278-4.513-7.8,1.672,6,1.922,11.9,2.557,17.984ZM81.688,426.388c.064-.118.126-.236.191-.351l-5.36-1.95-.116.309,5.287,2Z" transform="translate(-60.326 -126.016)" fill="#fff"/>
          <path id="Path_4688" data-name="Path 4688" d="M108.714,890.176l-5.287-1.995.116-.309q2.681.973,5.36,1.95c-.064.118-.127.236-.191.352Z" transform="translate(-87.352 -589.804)" fill="#fff"/>
          <path id="Path_4689" data-name="Path 4689" d="M283.325,598.254c-.519-1.687-1.089-3.358-1.547-5.06q-1.726-6.381-3.35-12.789c-.054-.208.225-.617.456-.757.461-.279,1.02-.851,1.5-.06a9.41,9.41,0,0,1,1.177,2.31c1.059,3.849,2.047,7.717,3.022,11.589.484,1.926.887,3.872,1.359,5.955,1.256-.759,2.42-1.545,3.654-2.19,3.572-1.867,7.173-3.677,10.766-5.506a33.96,33.96,0,0,1,3.189-1.549c.675-.259,1.393-1.174,2.235-.109.165.208.883-.1,1.2.084a8.551,8.551,0,0,1,1.892,1.453c1.2,1.243,2.332,2.559,3.491,3.845q.913-.344,1.813-.684a2.212,2.212,0,0,1-.169,2.649,35.86,35.86,0,0,0-1.909,3.508c.178-.124.349-.263.536-.37,1.123-.643,1.594-.472,2.363.542,1.187,1.564,2.456,3.067,3.7,4.586,3.769,4.614,7.6,9.187,10.141,14.649.379.814.692,1.661,1.076,2.589,1.005-.628,1.965-1.348,3.022-1.871a58.448,58.448,0,0,1,13.865-5.178,16.21,16.21,0,0,1,8.008.6c2.5.735,5.028,1.406,7.529,2.154a4.808,4.808,0,0,1,2.072.947,3.417,3.417,0,0,1,.885,2.139,4.715,4.715,0,0,0,1.179,2.829,39.288,39.288,0,0,1,6.234,12.419,3.8,3.8,0,0,1-.343,3.037c-2.387,4.2-4.7,8.461-7.241,12.567a133.842,133.842,0,0,1-7.554,11.137c-2.422,3.148-5.261,5.979-7.948,8.921-.934,1.022-1.926,2-2.951,2.927a7.531,7.531,0,0,1-2.7,2.044c-1.05.352-1.853,1.5-2.709,2.344-.7.694-1.32,1.472-1.976,2.211-.006.114-.011.225-.017.339l-.234-.038c.019.1.041.195.06.291l-.214-.1c-.015.054-.032.109-.047.163.077-.028.152-.058.225-.088.056-.083.116-.165.176-.244s.15-.135.225-.2c.8-.7,1.6-1.393,2.391-2.094.341-.3.673-.609.994-.9,2.818,7.106,1.732,13.844-1.86,20.627,1.035-.212,1.845-.375,2.655-.544,4.048-.842,8.1-1.654,12.138-2.54a33.429,33.429,0,0,1,9.624-.576c2.225.163,4.243-.645,6.386-.776,1.65-.1,3.285-.465,4.937-.542a38.874,38.874,0,0,1,6.219.036,8.626,8.626,0,0,1,3.981,1.432,22.036,22.036,0,0,1,3.982,4.054,5.648,5.648,0,0,1,.6,2.391c.118.632.152,1.279.225,1.918v2.571a2.054,2.054,0,0,0-.208.512,34.609,34.609,0,0,1-.464,3.855,19.215,19.215,0,0,1-3.9,8.446,30.706,30.706,0,0,1-11.89,8.151c-3.51,1.406-7.217,2.323-10.833,3.469-1.965.623-3.924,1.274-6.161,2,.4-.315.581-.457.759-.6l1.23-.727c1.2-.654,2.37-1.364,3.6-1.953,3.337-1.6,6.778-3,10.03-4.757a61.052,61.052,0,0,0,8.1-5.209c2.973-2.282,4.628-5.538,5.673-9.119a36.671,36.671,0,0,0,1.053-10.524,1.5,1.5,0,0,0-.225-.8,6.949,6.949,0,0,0-4.2-3.244c-2.97-.667-5.928-.176-8.975.184.448.506,1.013.863,1.468,1.328a15.479,15.479,0,0,1,2.079,2.4,9.4,9.4,0,0,1,1.035,5.283,32.3,32.3,0,0,1-1.228,8.615,24.544,24.544,0,0,1-3.073,7.372,18.158,18.158,0,0,1-8.808,6.5c-2.3.893-4.659,1.645-6.782,2.386.036.519.066.945.1,1.378l-1.174.758c-2.733.08-5.465.152-8.2.239-2.295.066-4.547-.433-6.808-.575-3.609-.225-7.25.048-10.876.128q-4.269.094-8.536.225c-1.988.059-3.975.138-5.962.215-.176.007-.347.069-.521.094-2.887.395-5.763.945-8.662,1.125a61.314,61.314,0,0,1-6.348-.374c-4.2-.187-8.4-.395-12.6-.447-2.946-.035-5.9.09-8.84.322-1.421.114-3.146-.5-3.917,1.039-1.406-.284-2.608-.526-3.868-.782.06-.377.114-.7.159-.983-.757-.758-1.418-.443-2.272-.138-1.665.6-2.942,2.479-5.128,1.53a11.215,11.215,0,0,0-2.432-.27c-.986-.177-1.944-.575-2.93-.654-1.011-.083-2.059.249-3.065.145a3.291,3.291,0,0,0-3.186,2.043,2.673,2.673,0,0,1-1.8,1.406c-.562.163-1.153.215-1.729.322-2.84.54-5.673,1.118-8.521,1.606-2.52.429-5.053.776-7.586,1.136-2.977.422-5.951.869-8.934,1.219-2.443.284-4.9.492-7.352.647-3.022.194-6.046.346-9.071.426-4.535.118-9.071.156-13.608.228-.178,0-.356.01-.534.017-2.432.138-4.865.284-7.3.4a1.416,1.416,0,0,1-.783-.249,11.389,11.389,0,0,1-5.053-7.628,15.531,15.531,0,0,1-2.01-.779,18.176,18.176,0,0,1-1.712-1.26.792.792,0,0,0-.484-.125c-2.709.187-5.413.481-8.126.554-3.658.1-7.321.017-10.981.035-4.742.024-9.485.083-14.228.1-2.685.01-5.372-.073-8.058-.031a17.368,17.368,0,0,0-2.447.443,3.419,3.419,0,0,1-.977.01,9.782,9.782,0,0,0-.99-.26q-4.2-.14-8.411-.225c-4.44-.083-8.881-.118-13.319-.225-4.667-.107-9.333-.263-14-.426-3.335-.114-6.665-.3-10-.415-3.088-.107-6.178-.194-9.268-.215-5.5-.035-11,0-16.5-.021a17.251,17.251,0,0,1-2.1-.28c.349-.755.6-1.3.876-1.894-.754-.821-.2-1.724.319-2.368.881-1.094,2.162-1.281,3.707-.717-.3-1.71-.675-3.231-.821-4.774-.137-1.47-.778-1.989-2.246-2.025a3.2,3.2,0,0,1-2.653-2c-.461-.9-.124-1.614.821-1.781,1.2-.212,2.417-.388,3.686-.589-.06-.182-.2-.386-.171-.563.152-1.052-.486-1.067-1.232-1-.8.075-1.6.178-2.4.176-.675,0-1.412.017-1.464-1.02A3.276,3.276,0,0,0,57,712.7v-.214c.874-2.424,3.455-2.143,5.231-3.285-2.394-3.791-.617-6.946,1.32-10.089.086-.544.148-1.093.264-1.631.171-.806.808-.859,1.47-.855.641,0,1.282,0,1.774,0-.356-2.079-.7-4.136-1.063-6.189-.109-.617-.276-1.224-.405-1.836-.244-1.19.246-1.6,1.432-1.451a27.129,27.129,0,0,0,3.238.026c-1.284-1.153-2.312-2.049-3.311-2.981a1.341,1.341,0,0,1,.334-2.383c.291-.159.448-.583.634-.9.366-.626.711-1.266,1.072-1.909a9.213,9.213,0,0,0,4.653,3.039c1.716.579,3.5.966,5.229,1.515a27.547,27.547,0,0,1,2.557,1.089,19.1,19.1,0,0,1,4.087-6.32,4.32,4.32,0,0,1,5.375-.649c-2.454.463-3.489,2.407-4.408,4.239a54.413,54.413,0,0,0-2.752,7.031,19.328,19.328,0,0,0-.493,3.484c1.4-.744,2.6-1.384,3.729-1.985.529-2.038,1.039-4.132,1.627-6.2a28,28,0,0,1,1.433-4.316c1.44-3.062,4.181-4.6,7.25-5.546a11.706,11.706,0,0,1,6.838-.242c.334.1.654.257.941.373-2.469.525-4.907.915-7.26,1.6a12.728,12.728,0,0,0-3.378,1.888c-1.253.849-1.269,2.338-1.633,3.632a47,47,0,0,1-1.633,5.58,21.988,21.988,0,0,0-1.132,4.224,1.286,1.286,0,0,0,1.374,1.556c.448.007.9,0,1.464,0a1.788,1.788,0,0,1-1.873,1.063c-1.554.079-2.97-.156-3.645-1.963-.718.754-1.4,1.47-2.077,2.179a2.669,2.669,0,0,1-4.305-.613,9.277,9.277,0,0,1-.585-2.728,14.924,14.924,0,0,1-.017-1.976l-12.258.716v6.911c.1.009.371.049.639.052,2.559,0,5.119-.026,7.679.011,2.7.036,5.4.085,8.1.219,3.214.161,6.427.392,9.637.638,3.334.255,6.667.559,10,.857.769.069,1.532.2,2.3.307a1.118,1.118,0,0,1-.992,1.571,11.811,11.811,0,0,1-1.875.251c-2.64.086-5.282.216-7.921.18-2.934-.043-5.865-.236-8.795-.388-3.879-.2-7.753-.431-11.632-.641-1.47-.079-2.949-.06-4.406-.235a3.985,3.985,0,0,0-3.592,1.258,10.547,10.547,0,0,0-3.161,7.445,1.207,1.207,0,0,0,.264.1q4.851.116,9.7.223c3.808.079,7.616.12,11.422.234,3.229.1,6.459.248,9.686.42,3.575.189,7.147.413,10.717.645,2.962.193,5.919.433,8.881.63,3.392.227,6.785.459,10.179.641,3.292.178,6.588.281,9.879.443,2.8.14,5.593.319,8.246.474-.255-2.5-.493-4.933-.763-7.366-.073-.667.291-1.153.8-1.153s1.314.1,1.41.864a13.3,13.3,0,0,1,.12,2.857c-.129,1.464-.409,2.912-.667,4.635l22.109-2.135c-1.4-1.549-2.8-3.173-4.288-4.717-1.147-1.189-2.441-2.235-3.583-3.427a1.879,1.879,0,0,0-1.918-.471,23.777,23.777,0,0,1-3.037.324c-.323.01-.66-.341-.99-.525.264-.247.5-.656.795-.707,1.039-.18,2.1-.236,3.232-.345a5.65,5.65,0,0,0-.379-.527q-4.638-5.085-9.292-10.151a1.147,1.147,0,0,0-.731-.349c-4.406-.094-8.814-.083-13.216-.265-2.192-.09-4.37-.523-6.554-.8.024.388.058.99.1,1.759h11.566c0,.131.011.261.015.392-3.943.184-7.884.37-12.027.563-1.048,2.407-2.175,4.968-3.266,7.546-.129.3,0,.7-.095,1.027a10.514,10.514,0,0,1-.741,1.836c-.032.062-.626-.253-.956-.245-.662.022-1.318.193-1.978.217a11.539,11.539,0,0,1-2.582-.071c-1.161-.227-1.331-1.339-.653-2.334a4.564,4.564,0,0,0,.613-2.173c.184-2.651.274-5.306.394-7.852-3.279-1.095-6.393-2.136-9.689-3.238-1.431,1.221-3.118,2.661-4.8,4.1l.071.313h11.9c.017.118.034.238.053.356a3.074,3.074,0,0,1-.784.3c-1.749.178-3.5.334-5.248.48-1.052.087-2.107.208-3.159.206-1.159,0-2.317-.187-3.474-.18a1.729,1.729,0,0,0-1.2.531c-1.011,1.271-1.935,2.612-2.885,3.935a3.178,3.178,0,0,1-3.553,1.262.9.9,0,0,1-.431-.763c.8-3.41,1.494-6.86,2.546-10.194a26.063,26.063,0,0,1,4.4-7.515c1.558-2.09,3.877-2.072,6.063-2.473a14.019,14.019,0,0,1,1.5-.019,1.453,1.453,0,0,1,1.708,1.322,42.312,42.312,0,0,1-4.5,1.19,6.7,6.7,0,0,0-5.111,3.774c-1.127,2.132-2.263,4.271-3.191,6.493-.806,1.929-1.326,3.977-1.986,6.013a1.392,1.392,0,0,0,1.723-.821,21.912,21.912,0,0,1,5.038-6.594,35.19,35.19,0,0,1,7.415-4.708c-.082.6-.131.979-.172,1.281,2.5.982,5.03,2,7.584,2.955a3.842,3.842,0,0,0,1.331-.036c.626-.017,1.174.131,1.3.844a18.587,18.587,0,0,1,.568,3.9,54.093,54.093,0,0,1-.782,5.808,2.438,2.438,0,0,1-.382.96c-.548.827-.186,1.207.634,1.344a8.24,8.24,0,0,0,1.08.073c.591-2.276,1.125-4.438,1.727-6.581a4.828,4.828,0,0,1,.812-1.575c1.166-1.535.872-3.065.313-4.751a32.22,32.22,0,0,1-1.346-5.78,3.546,3.546,0,0,1,1.108-3.1c.96-.968,1.333-2.5,2.051-3.735,2.272-3.911,4.455-7.882,6.948-11.649.928-1.4.686-2.619.615-4-.066-1.316-.015-2.64-.083-3.956a1.256,1.256,0,0,0-.476-.885,2.473,2.473,0,0,1-1.209-2.643,33.82,33.82,0,0,1,3.89-10.02,37.429,37.429,0,0,1,7.157-9.057c-2.4-.669-4.635-1.309-6.883-1.913-1.434-.386-2.891-.682-4.312-1.108-.371-.111-.934-.6-.9-.842a.988.988,0,0,1,1.324-.836c2.614.669,5.242,1.3,7.828,2.068a16.91,16.91,0,0,1,3.208,1.466.927.927,0,0,0,1.078-.073c1.3-.71,2.668-1.3,3.977-2,.973-.521,1.9-1.138,2.775-1.671.242.126.6.458.778.381a6.956,6.956,0,0,0,2.507-1.354,9.088,9.088,0,0,1,11.441-1.485c.354.21.737.367,1.269.628a19.452,19.452,0,0,0-.019-2.638c-.311-2.162,1.016-3.311,2.57-4.306a12.189,12.189,0,0,1,2.2-1.041c2.55-.979,2.443-3.435,2.923-5.456.887-3.727,1.56-7.5,2.265-11.272.165-.885.039-1.821.146-2.724a36.8,36.8,0,0,1,.662-4.142,8.213,8.213,0,0,1,1.1-1.9c-.564.071-.814.1-1.1.135.186-.514.345-.96.5-1.378.795-.084.345,1.873,1.714.934a2.35,2.35,0,0,1,.334.765c.079,4.582.311,9.17.114,13.741-.09,2.092-1.035,4.145-1.594,6.217-.311,1.155-.626,2.31-.969,3.585l4.436-1.892c.154.191.309.382.465.572a4.67,4.67,0,0,0-.889.33c-2.33,1.427-4.631,2.9-6.976,4.3a8.788,8.788,0,0,1-2.475,1.115c-2.229.506-2.587,2.218-3.1,4.061-.544,1.967.343,2.8,1.854,3.692,1.68.99,3.155,2.323,4.773,3.429,2.46,1.682,4.967,3.3,7.47,4.957.1-1.29.225-2.576.292-3.864.165-3.148.255-6.3.46-9.448.23-3.491.555-6.978.842-10.467.056-.664.148-1.326.182-1.991.075-1.412.872-2.653.761-4.151a27.589,27.589,0,0,1,.343-4.421c.144-1.607.32-3.212.412-4.822.036-.647-.2-1.307-.165-1.954.107-2.25.167-4.509.454-6.738.221-1.716,1.34-2.064,2.823-1.078a4.483,4.483,0,0,0,.557.272,19.615,19.615,0,0,1,5.76-3.879,1.578,1.578,0,0,1,1.146.023c8.189,4.246,16.3,8.619,23.6,14.326,5.1,3.99,10.209,7.985,15.26,12.044,4.125,3.315,8.221,6.673,12.23,10.128,2.021,1.74,3.823,3.733,5.823,5.711A145.758,145.758,0,0,1,284.3,600.688l-.637-1.67-.653,1.378c-1.854-1.611-3.577-3.107-5.3-4.605a1.261,1.261,0,0,1-.156-1.8c.428-.557,1.009-.163,1.416.242,1.41,1.4,2.8,2.81,4.2,4.218.081.088.163.176.242.264.04-.03.081-.058.12-.088-.073-.12-.148-.238-.221-.358Zm-6,132.687c.643-.5,1.286-1,1.929-1.5.247-.177.5-.35.742-.523-.071-.08-.142-.163-.212-.242l-.667.568-1.986,1.558q-.766.6-1.528,1.2c.054.062.105.125.159.191q.782-.623,1.565-1.247ZM296.359,715.9v-1.072c.09-.529.176-1.058.27-1.588.277-1.543.643-3.075.812-4.629.227-2.107.317-4.228.441-6.343.154-2.578.3-5.154.409-7.734.011-.247-.214-.5-.33-.752a15.184,15.184,0,0,0-.505,3.466c-.095,1.952-.105,3.911-.232,5.861-.255,3.913-.566,7.824-.851,11.738a32.412,32.412,0,0,1-2.7,2.773c-3.362,2.745-6.794,5.407-10.192,8.109-.876.7-1.729,1.423-2.6,2.136a1.174,1.174,0,0,0,.917-.256c2.04-1.548,4.091-3.085,6.105-4.666,2.9-2.28,5.78-4.6,8.669-6.9l.163-.294c-.129.049-.255.1-.384.15Zm27.025-19.69a4.567,4.567,0,0,0-.93.4c-.967.7-1.933,1.408-2.853,2.169q-4.536,3.761-9.035,7.565-2.4,2.032-4.736,4.134c-1.642,1.468-3.253,2.97-4.877,4.457-.077.1-.152.2-.23.3l.39-.148c.534-.384,1.091-.743,1.6-1.157,3.165-2.576,6.346-5.132,9.472-7.755,3.6-3.024,7.151-6.1,10.709-9.178a2.911,2.911,0,0,0,.467-.814l.212-.03c-.009-.032-.019-.064-.028-.1-.056.052-.109.1-.165.152ZM145.4,687.742c.088.017.173.036.261.054l-.148-.165a10.1,10.1,0,0,1-.557-.874c-.658-1.312-1.49-1.732-3.127-1.567-3.45.349-6.95.242-10.43.3-2.006.03-4.012.007-6.007.007.1.3.229.681.36,1.072.45,0,.84-.017,1.23,0,4.173.21,8.347.4,12.517.651C141.471,687.335,143.434,687.564,145.4,687.742Zm32.936-3.767,4.048,3.131.218-.289q-1.816-1.415-3.63-2.831a1.575,1.575,0,0,0-.193-.246c-3.585-3.024-7.136-6.088-10.77-9.05-2.255-1.836-4.642-3.506-6.954-5.272-.527-.4-.988-.294-1.224.206a1.116,1.116,0,0,0,.36.979c2.567,1.95,5.169,3.853,7.964,5.919-2.9-.358-5.555-.685-8.21-1.016a2.354,2.354,0,0,0,1.247.75c2.135.266,4.284.392,6.412.694a5.486,5.486,0,0,1,2.308.891c2.842,2,5.621,4.08,8.424,6.131Zm144.887-63.982.019.023a7.957,7.957,0,0,0-.525-1.129q-1.8-2.707-3.639-5.385c-2.739-3.986-6.187-7.558-7.276-12.468a95.729,95.729,0,0,0-14.452,30.135,9.393,9.393,0,0,1,2.477-.206,5.217,5.217,0,0,1,1.9,1.061c2.092,1.485,4.2,2.955,6.221,4.526,1.286,1,2.445,2.16,3.606,3.2a4.8,4.8,0,0,1,1.2.649,2.654,2.654,0,0,1,.546,1.119c.392,1.273.746,2.559,1.142,3.937,2.63-2.36,5.207-4.668,7.773-6.993a1.289,1.289,0,0,0,.3-.637c.272-1.115.5-2.239.784-3.352.439-1.71.93-3.407,1.363-5.119.386-1.53.72-3.075,1.207-5.175-.683-1.084-1.663-2.638-2.645-4.19ZM247.05,632.911l.011.028a1.753,1.753,0,0,1,.778-2.272c1.277-.741,2.645-1.324,3.977-1.965.27-.131.759-.182.793-.343a1.153,1.153,0,0,0-.263-.934c-3.337-3.152-6.573-6.429-10.092-9.367-4.839-4.042-9.9-7.822-14.855-11.72-3.388-2.664-6.69-5.447-10.179-7.97-3.71-2.681-7.571-5.152-11.409-7.648-2.944-1.914-5.96-3.718-8.93-5.591a10.747,10.747,0,0,1-1.187-.982c-.949,2.5-3.615,2.28-5.047,3.5,19.272,10.511,37.342,22.679,52.737,38.557a1.327,1.327,0,0,1-.913-.311c-3.658-3-7.286-6.039-10.966-9.013s-7.368-5.921-11.1-8.814a161.061,161.061,0,0,0-15.854-10.689c-4.106-2.465-8.223-4.914-12.311-7.409-1.059-.645-2.062-1.329-3.339-1.1-.392,3.731-.773,7.438-1.172,11.143-.277,2.585-.6,5.163-.851,7.749-.3,3.157-.581,6.316-.789,9.477-.161,2.426-.176,4.86-.292,7.288-.2,4.209-.413,8.42-.673,12.626a1.293,1.293,0,0,0,.744,1.318c3.776,2.413,7.487,4.931,11.325,7.239,4.621,2.779,9.363,5.359,14,8.107a2.9,2.9,0,0,1,.915,1.732,6.034,6.034,0,0,1-.156,1.641c-.092,1.488-.208,2.975-.223,4.464-.03,2.874,0,5.745.021,8.619,0,.142.171.281.448.705a9.02,9.02,0,0,0,.377-1.547c.1-2.593.12-5.191.242-7.784.062-1.324.285-2.64.459-4.168,8.336,4.316,16.477,8.533,24.49,12.68l1.058-.555c.1.422.2.844.287,1.271.036.18-.049.444.047.54a17.442,17.442,0,0,0,3,2.754,50.809,50.809,0,0,0,6.442,3.154c3.043,1.247,6.165,2.3,9.249,3.448,2.181.814,4.35,1.654,6.506,2.475-.553,1.507-1.1,3-1.648,4.485l.324.135c.621-1.427,1.234-2.861,1.867-4.282.27-.607.4-1.412,1.421-1.1.109.034.351-.172.45-.322.954-1.438,1.914-2.869,2.822-4.335a20.557,20.557,0,0,1,9.178-8.326c3.4-1.515,6.729-3.193,10.087-4.807a4.543,4.543,0,0,0,.634-.544c-4.07.915-7.814,1.783-11.572,2.582a8.563,8.563,0,0,1-3.245.3c-2.07-.4-4.071-1.14-6.122-1.665-.988-.253-1.845-.557-2-1.693h-2.829c.508-.966.911-1.607,1.957-1.792,3.6-.634,7.185-1.363,10.762-2.119,3.506-.742,7.027-1.445,10.479-2.389,2.28-.624,4.451-1.648,6.673-2.492-6.823,4.556-14.643,6.4-22.823,8.1,2.454.767,4.412,2.13,6.825,1.723.484-.082.971-.169,1.459-.212,3.375-.294,6.75-.568,10.124-.866a6.512,6.512,0,0,0,3.606-1.251c.609-.48,1.288-.872,1.942-1.295A97.176,97.176,0,0,0,307.48,651.6a13.785,13.785,0,0,1,3.183-2.4c4.515-2.128,9.152-4,13.646-6.172,4.033-1.948,7.938-4.162,11.9-6.258l1.646-.926c-.06-.1-.122-.2-.182-.306L336,636.605c-5.321,2.452-10.632,4.927-15.967,7.344-2.372,1.076-4.8,2.036-7.331,3.105a24.046,24.046,0,0,1-.849-3.718A2.659,2.659,0,0,0,309.7,640.5c-3.1-1.037-5.617-3.242-8.173-5.272-1.007-.8-1.783-1.365-3.409-.863-2.469.761-5.186.718-7.8,1.018a3.813,3.813,0,0,0-.66-1.644c-1.7-1.665-3.57-3.174-5.16-4.935-.934-1.037-1.761-.973-3.006-.521.894,3.845,1.8,7.653,2.633,11.478a1.626,1.626,0,0,1-.476,1.294,24.612,24.612,0,0,1-2.488,1.751c.056-1.069.1-1.892.14-2.717a9.9,9.9,0,0,0,.062-2.246c-.512-2.715-1.153-5.4-1.689-8.118-.332-1.684.086-2.4,1.644-3.2a1.166,1.166,0,0,0,.3-.3,1.961,1.961,0,0,1,2.563-.521,6.958,6.958,0,0,1,.829.435c.566.375,1.172.726.712,1.6-.081.157.1.553.27.727,1.5,1.513,3.007,3.013,4.545,4.483a1.094,1.094,0,0,0,.878.231c1.5-.4,2.992-.857,4.246-1.226,1.314-12.541,6.613-23.142,14.06-32.878a8.261,8.261,0,0,0-1.545.788c-5.471,3.538-11.026,6.956-16.375,10.67-4.378,3.041-8.566,6.367-12.732,9.7-4.055,3.24-7.959,6.669-11.966,9.969-1.108.913-2.346,1.667-3.525,2.492,13.664-14.714,29.766-26.232,46.844-36.11-1.852-1.637-3.63-3.208-5.454-4.817-.562.379-1.284.934-2.066,1.382-3.093,1.764-6.241,3.429-9.3,5.248-4.652,2.764-9.241,5.634-13.87,8.439a106.8,106.8,0,0,0-16.512,12.888c-2.132,1.95-4.466,3.68-6.6,5.623-1,.911-2.79,1.378-2.346,3.341.013.056.028.111,0-.008l2.469,1.56,4.26-5.176.294.232a5.238,5.238,0,0,1-.362.6c-1.039,1.331-2.031,2.709-3.159,3.962a1.265,1.265,0,0,0-.088,1.8c.144.219.313.42.446.6a19.877,19.877,0,0,1,1.433-1.543c2.893-2.557,5.773-5.13,8.729-7.614,1.635-1.374,3.409-2.583,5.121-3.864.062.056.122.112.185.165-2.533,2.164-5.092,4.3-7.593,6.5s-4.929,4.462-7.524,6.819c1.98.36,2.3,1.6,2.111,3.127-.2,1.633-.321,3.287-.658,4.895-.93,4.429-1.9,8.853-2.955,13.256-.943,3.943-1.993,7.861-3.034,11.778-.581,2.182-1.226,4.344-1.888,6.5-.073.235-.448.377-.683.563-.14-.251-.4-.506-.4-.752a17.969,17.969,0,0,1,.221-2.518c.542-3.3,1.08-6.6,1.7-9.892.771-4.134,1.575-8.261,2.436-12.378.853-4.085,1.774-8.156,2.7-12.226.457-2-.292-2.625-1.586-3.56-2.137-1.543-4.31-.81-6.444.017-1.007.39-1.963.917-2.942,1.382Zm16.176,93.574c-1.267-2.741-2.557-5.351-3.69-8.028-2.028-4.787-4.5-9.245-8.426-12.785-2.289-2.066-2.754-2.094-5.627-.748a18.417,18.417,0,0,1-5.111,1.717,71.436,71.436,0,0,1-8.358.474,35.6,35.6,0,0,1-9.041-1.232c-1.986-.478-3.99-.881-6-1.318l1.048,1.121a6.692,6.692,0,0,0-1.749.021,15.271,15.271,0,0,0-6.242,3.931,31.465,31.465,0,0,0-6.382,9.416c-2.672,5.829-4.228,11.922-3.491,18.425.242,2.129.223,2.129,2.265,2.022.037,0,.071,0,.107,0,5.915-.215,11.827-.44,17.742-.637.544-.017.778-.145.921-.734.56-2.285,1.3-4.529,1.8-6.824.622-2.863,1.213-5.747,1.547-8.652a37.205,37.205,0,0,0,.024-6.446,11.859,11.859,0,0,0-3.118-7.614.853.853,0,0,1-.268-.553c.026-.283.182-.793.285-.793.538,0,1.294-.077,1.58.236a21.984,21.984,0,0,1,3,3.836c1.539,2.711,1.352,5.784,1.037,8.7a52.66,52.66,0,0,1-1.841,8.46c-.96,3.421-2.149,6.779-3.266,10.242,1.157-.09,2.355-.163,3.551-.284,3.478-.346,6.967-.623,10.426-1.1,4.507-.623,9-1.381,13.482-2.154a9.381,9.381,0,0,0,3.015-.99,20.456,20.456,0,0,0,2.619-2.126c.72-.589,1.461-1.153,2.254-1.773-1.8-2.012-3.5-3.906-5.2-5.8a1.414,1.414,0,0,1,.206-2.332c.677-.566,1.3-.318,1.832.287.21.24.441.467.628.727,1.425,1.983,2.844,3.97,4.294,6,1.322-.855,2.724-1.766,4.151-2.687Zm-202.964,4.12c1.813-.107,3.637-.315,5.458-.3,5.983.024,11.964.111,17.948.2,2.325.034,4.648.118,6.971.211,2.944.121,5.887.287,8.831.422,3.182.149,6.365.322,9.549.422,7.473.235,14.948.436,22.422.654a8.186,8.186,0,0,0,1.464.121c.3-.045.774-.419.776-.647.019-3.511-.531-6.776-4.305-8.631.583-.107,1.018-.186,1.5-.276-.03-.1-.092-.315-.178-.6a7.428,7.428,0,0,1,1.721-.446c3.337-.038,6.675-.073,10.012.021a45.011,45.011,0,0,1,4.511.591,24.851,24.851,0,0,0,3.65.4,13.953,13.953,0,0,0,2.968-.607q6.12-1.489,12.234-3c.911-.225,1.807-.506,2.709-.761.062.135.124.27.185.408a5.493,5.493,0,0,1-1.125.771c-3.392,1.247-6.776,2.52-10.207,3.652a17.99,17.99,0,0,1-7.487,1c-2.85-.283-5.718-.414-8.581-.527-3.157-.124-6.317-.154-9.416-.223a9.057,9.057,0,0,1,3.83,8.013c2.019-.111,3.956-.222,5.893-.322,1.594-.083,3.189-.173,4.785-.229,4.2-.145,8.4-.388,12.605-.384,4.455,0,8.908.27,13.366.371,2.535.059,5.07.01,7.263.01,1.295-2.787,2.419-5.211,3.5-7.534a8.214,8.214,0,0,1-1.423-.718c-2.572-1.971-5.163-3.922-7.655-5.99a47.4,47.4,0,0,1-4.929-4.622,2.7,2.7,0,0,0-3.365-.913,7.421,7.421,0,0,1-1.438.294,43.521,43.521,0,0,0-6.168,1.166c-2.52.847-5.1.874-7.667,1.185-1.537.187-3.107.187-4.608.517-.876.193-1.286-.023-1.538-.643-.568.071-1.046.129-1.31.163a6.856,6.856,0,0,1-1.05,1.142c-.986.65-2,1.26-3.045,1.813a9.515,9.515,0,0,0-3.465,2.436,3.587,3.587,0,0,1-1.367.937c-4.115,1.879-8.414,1.494-12.723,1-1.985-.225-3.98-.352-5.971-.523,1.342.484,1.49.615,1.56,1.545a13.059,13.059,0,0,1-1.652.178c-2.953-.049-5.906-.107-8.857-.21-3.155-.112-6.307-.33-9.461-.407-4.843-.118-9.688-.161-14.534-.227-1.5-.022-3,.023-4.5-.032-4.4-.163-8.808-.364-13.244-.55a15.139,15.139,0,0,1,1.065,6.769,2.151,2.151,0,0,1-1.6,1.97,3.008,3.008,0,0,1-1.541-.312c-1.432-.547-2.205-.142-2.368,1.264Zm289.728-20.312c-.234,3.491-.356,6.842-.718,10.17-.227,2.1-.814,4.162-1.238,6.24-.142.7-.542.945-1.284.7,0-3.917-.064-7.843.028-11.765a43.489,43.489,0,0,1,.622-5.377,1.426,1.426,0,0,1,1.986-1.191c.684.208,1.342.495,1.935.72a23.191,23.191,0,0,1,10.507-11.242,6.927,6.927,0,0,0-.847.075c-1.991.474-3.973.981-5.968,1.431-5.141,1.162-10.291,2.291-15.428,3.474-.306.071-.587.444-.786.739-.506.75-.958,1.535-1.429,2.306-.094-.045-.191-.09-.285-.137.058-.549.116-1.1.169-1.6-.712.054-1.337.09-1.961.152a7.306,7.306,0,0,0-1.7.227q-3.539,1.231-7.036,2.578a3.892,3.892,0,0,0-1.646,1.033c-1.292,1.644-2.509,3.349-3.679,5.081-1.749,2.589-3.718,5.085-4.485,8.188a27.68,27.68,0,0,0-.366,4.171,29.017,29.017,0,0,0,4.745,1.79c2.848.561,5.762.793,8.651,1.139q6.4.769,12.8,1.5a29.873,29.873,0,0,0,3.29.2c3.324,0,6.648-.038,9.969-.073a5.794,5.794,0,0,0,2.263-.138c2.846-1.368,5.638-2.85,8.42-4.349a15.842,15.842,0,0,0,7.147-7.393,35.245,35.245,0,0,0,2.887-9.706,19.686,19.686,0,0,0-.009-7.715,4.63,4.63,0,0,0-4.419-3.384,25.3,25.3,0,0,0-7.627,1.623c-4.389,1.748-7.451,5.066-10.267,8.681-.812,1.044-1.7,2.031-2.409,2.88-.692-.394-1.23-.7-1.826-1.039Zm-135.761-6.176c-1.174-.137-2.347-.339-3.527-.4a32.314,32.314,0,0,0-9.744.881c-1.436.375-3.009.568-4,2-1.669,2.4-3.5,4.683-5.143,7.1a24.205,24.205,0,0,0-4.173,8.9,62.057,62.057,0,0,0-.759,6.767,14.436,14.436,0,0,0,.872,7.056c.667,1.513,1.59,2.912,2.227,4.058,2.381-.2,4.55-.363,6.716-.568a11,11,0,0,0,1.385-.294,27.005,27.005,0,0,1-1.091-4.491,30.06,30.06,0,0,1,.682-10.107c1.86-6.656,4.732-12.774,10.076-17.434a16.173,16.173,0,0,1,6.481-3.472Zm-75.164,9.742c-1.532-.086-3.395-.221-5.259-.285-2.878-.1-5.758-.14-8.638-.227q-2.44-.074-4.88-.223c-4.093-.255-8.182-.545-12.275-.793-2.012-.122-4.031-.185-6.045-.268-3.429-.144-6.856-.292-10.284-.424q-3.076-.119-6.153-.2c-3.549-.09-7.1-.122-10.647-.266-2.181-.09-4.357-.369-6.538-.514-1.807-.12-3.641-.5-5.411.126-1.044.367-2.019.924-3.2,1.479a8.155,8.155,0,0,0,.879,0,33.933,33.933,0,0,1,4.584-.583c3.579.034,7.164.15,10.73.446,3.108.257,6.194.774,9.282,1.237,2.728.409,5.441.906,8.163,1.352,2.1.343,4.2.69,6.3.988,1.912.272,3.832.48,5.748.718,2.676.332,5.349.692,8.028,1,2.237.255,4.5.364,6.723.688a59.692,59.692,0,0,0,10.754.81,1.55,1.55,0,0,0,.767-.227c2.527-1.641,5.043-3.3,7.368-4.828Zm-6.335-49.915a120.813,120.813,0,0,1-8.654,14.125,1.79,1.79,0,0,0-.42,1.627c.27.97.534,1.948.877,2.893a.992.992,0,0,0,.7.544c2.128.105,4.26.131,6.388.223,1.311.056,2.621.182,3.93.287,2.492.2,4.984.409,7.638.63a127.353,127.353,0,0,1-10.464-20.33ZM114.5,720.722c.017-.064.036-.128.054-.191-1.535-.18-3.067-.368-4.6-.536-2.132-.232-4.275-.388-6.4-.681-3.182-.439-6.358-.941-9.528-1.472-3.1-.519-6.185-1.147-9.288-1.652-2.255-.367-4.526-.639-6.8-.9-1.68-.195-3.369-.324-5.055-.452-2.636-.2-5.272-.371-7.91-.555-.148,1.605.591,3.225-1.087,4.254-.274-.409-.486-.729-.7-1.054a7.236,7.236,0,0,1-1.725.341c-1.1-.05-1.172.463-.881,1.474,3.365,0,6.74-.034,10.113.009q6.821.084,13.64.261,7.406.183,14.812.431c2.023.066,4.046.212,6.069.306,3.1.146,6.193.276,9.292.416ZM81,685.783c-.607-.114-1.074-.217-1.545-.29-1.444-.22-2.912-.345-4.335-.667-2.171-.491-4.269-1.2-5.546-3.041l-1.348,1.052c1.526,1.314,2.938,2.546,4.372,3.752a1.474,1.474,0,0,0,.825.382c2.407.03,4.813.017,7.282.017.086-.349.208-.846.3-1.208ZM275.115,711.6c.816-1.909-6.832-15.432-9.438-16.377-.362.628-.075,1.067.3,1.6,1.813,2.559,3.663,5.1,5.315,7.762,1.406,2.265,2.563,4.685,3.819,7.017Zm-13.276-23.708c-.079-.152-.161-.3-.24-.454l-10.681,5.78c.056.107.114.212.169.319C254.709,691.73,258.479,690.2,261.839,687.894ZM249.6,694.25c-.163,0-.525-.112-.664.019a7.932,7.932,0,0,0-2,2.121,21.119,21.119,0,0,0-1.005,3.817l.422.131,3.242-6.088Zm14.956,35.815.2-.145c-.315-.668-.63-1.333-.99-2.095-.332.346-.574.6-.861.9.572.467,1.112.9,1.654,1.347Zm64.569-97.484c-.017-.109-.034-.218-.052-.325l-2.526.992c.062.142.122.285.184.427Zm-6.264,98.4c-1.243-.713-2.064-.672-2.552.17C321.157,731.09,321.989,731.034,322.857,730.976Zm-42.826-2.517c.06.087.122.17.182.256l.771-.516-.146-.215-.808.478ZM310.3,598.869c-.094-.094-.188-.186-.281-.281l-.439.24.4.4.326-.354ZM131.5,723.17c.028-.023.049-.045.073-.064a.683.683,0,0,0-.135-.06c-.017,0-.045.037-.066.058.043.024.088.045.128.068Z" transform="translate(-57 -387.998)"/>
          <path id="Path_4690" data-name="Path 4690" d="M467.574,34.871c3.165-.641,4.86.992,6.133,4.121.351.861.733,1.712,1.024,2.389a32.511,32.511,0,0,1,2.842-3.262c1.747-1.556,3.8-1.232,5.463.33a1.918,1.918,0,0,0,2.216.606,5.628,5.628,0,0,1,4.365.416,3.813,3.813,0,0,0,1.048.414,3.045,3.045,0,0,1,2.951,3.3c-.075,1.682-.394,3.354-.6,5,2.653-.255,5.177.18,6.937,2.636a3.027,3.027,0,0,1,4.843,1.95,9.874,9.874,0,0,1-.647,6.515,9.983,9.983,0,0,1,2.014.349,7.35,7.35,0,0,1,2.143,1.23,3.083,3.083,0,0,0,1.551.992c2.79.516,3.519,2.737,3.924,4.672.165.786.2,1.6.3,2.505.433-.163.757-.058,1.309-.461,2.04-1.487,2.263-1.3,2.709-2.482a10.735,10.735,0,0,0,.979-4,14.6,14.6,0,0,0-2.467-7.7c-.071-.1-.131-.212-.2-.319.1-.06.21-.122.317-.182a22.705,22.705,0,0,1,2.115,3.69,26.355,26.355,0,0,1,1.511,6.063,7,7,0,0,1-2.451,6.1,14.22,14.22,0,0,1,2.134,1.85,5.2,5.2,0,0,1,1.155,2.43,14.947,14.947,0,0,1,0,5.463c-.353,1.43-.206,2.966-.958,4.355-1.157,2.139-1.153,2.164-1.057,4.543.142,3.555-1.787,6.049-4.269,8.557.375.87.84,1.867,1.232,2.889s.722,2.089,1.121,3.259a13.044,13.044,0,0,0,6.547-5.345c.626.21.87.482.557,1.228a19.279,19.279,0,0,1-8.3,9.536c-.553.319-.887,1.007-1.354,1.494-.857.889-1.74,1.757-2.644,2.668a17.17,17.17,0,0,1,2.076.229c2.962.7,4.172,5.218,1.8,7.485a12.075,12.075,0,0,1-7.192,3.056c-1.258.159-1.327.092-.9,1.237.911,2.432-1.419,5.79-3.508,6.035.12-1.993,1.8-3.641,1.189-5.857-1.691.853-3.769-.426-5.407,1.076-.143,2.218-.366,4.449-2.784,5.681a9.166,9.166,0,0,1-.525,7.764,7.216,7.216,0,0,1-1.961,2.2c-.388.306-1.112.184-1.7.118a3.223,3.223,0,0,0,2.981-2.936,10.538,10.538,0,0,0-.182-5.981c-1.408.15-2.79.3-4.177.444-.15,2.152-.735,4.069-2.945,5.038,1.247-1.029,2.2-2.188,1.7-4.164-.572.626-1,1.5-1.644,1.715-1.616.54-2.342,1.813-3.189,3.073a3.116,3.116,0,0,1-3.155,1.444,1.82,1.82,0,0,0-.437.049,2.681,2.681,0,0,1-3.088-1.8c-.452-.977-1.014-1.905-1.537-2.85a1.126,1.126,0,0,0-1.554-.634c-.693,3.48,1.283,6.75,4.871,8.1.645.244,1.592.287,1.466,1.395-2.79.326-6.322-2.368-7.749-5.572a26.169,26.169,0,0,1-3.65,2.955,4.606,4.606,0,0,0-2.047,3.037,10.817,10.817,0,0,1,5.19,2.482,12.7,12.7,0,0,0,5.677,2.6,50.756,50.756,0,0,1,7.413,2.34c2.2.838,2.889,2.8,2.878,4.963-.009,1.757-.3,3.512-.388,5.272-.069,1.4.036,2.8-.028,4.2a1.761,1.761,0,0,1-1.922,1.828,5.528,5.528,0,0,0-2,.454,80.846,80.846,0,0,0-16.023,9.978c-2.22,1.781-4.282,3.759-6.479,5.572-1.963,1.62-4.012,3.137-6.009,4.691-.849-.649-.977-1.11-.287-1.834,2.842-2.985,5.535-6.116,8.456-9.02a49.339,49.339,0,0,1,12.573-9.232c2.141-1.078,4.235-2.246,6.388-3.3a26.318,26.318,0,0,1,2.959-1.033c0-1.577.015-3.356-.006-5.135a7.12,7.12,0,0,0-.178-2.392,5.229,5.229,0,0,0-3.594-3.1,55.95,55.95,0,0,0-6.335-1.5,11.555,11.555,0,0,1-5.651-2.814c-1.148-.982-2.383-1.867-3.579-2.8-1.044,1.609-2,3.274-3.146,4.8-1.166,1.554-2.518,2.968-3.789,4.443l-.368-.427c.163.23.493.486.463.686A73.188,73.188,0,0,0,460,169.593a1.555,1.555,0,0,1-.227.776c-.131.225-.418.574-.544.54a1.047,1.047,0,0,1-.643-.576,10.438,10.438,0,0,1-.491-2.117,25.386,25.386,0,0,1,.877-10.67c.017-.056-.019-.131-.015-.107A48.89,48.89,0,0,1,454,159.431a13.043,13.043,0,0,1-6.02.51,34.526,34.526,0,0,0-4.451-.255,16.85,16.85,0,0,1-10.137-4.023c-.784-.649-1.584-1.284-2.5-2.025a13.34,13.34,0,0,1-.583,2.117c-1.35,2.93-2.724,5.85-4.173,8.73-.257.512-.917.823-1.5,1.318,2.08,4.228,4.669,8.452,9.1,11.19,2.445,1.509,4.25,3.675,6.168,5.754,1.772,1.922,3.746,3.658,5.634,5.473.283.272.576.532.847.782,1.631-1.9,3.2-3.86,4.907-5.694,3-3.225,6.041-6.423,9.159-9.536,2.719-2.717,5.576-5.3,8.353-7.959a5.692,5.692,0,0,0,.638-1.037,2.9,2.9,0,0,1,.349-.375c.12.178.377.405.334.527a5.055,5.055,0,0,1-.7,1.492c-1.314,1.659-2.608,3.339-4.046,4.886-3.178,3.42-6.461,6.746-9.661,10.147-2.2,2.344-4.331,4.757-6.51,7.125-.429.465-.934.859-1.492,1.363.677.6,1.369,1.183,2.01,1.813a2.735,2.735,0,0,1,.394.808c-.335.047-.746.24-.992.115-1.459-.741-2.921-1.491-4.305-2.359a34.727,34.727,0,0,1-7.841-6.02,41.545,41.545,0,0,0-2.78-3.332,63.326,63.326,0,0,0-5.231-4.177,19.272,19.272,0,0,1-5.728-6.982c-2.072-4.1-3.892-8.33-5.81-12.507a4.563,4.563,0,0,1-.186-.725c1.7-.336,2.456.823,3.148,1.882,1.157,1.77,2.19,3.62,3.253,5.4,1.438-4.378,2.334-8.973,4.453-13.042l-2.844-5.3c-2.428,2.555-5.656,2.662-9.069,2.239-2.752-.338-5.572-.8-8.244.236a21.968,21.968,0,0,0-3.845,2.36c-.467.306-.864.72-1.3,1.071a3.972,3.972,0,0,0-1.582,2.94c-.152,2.051-.409,4.093-.579,6.144-.081.984.649,1.524,1.339,2.014,3.013,2.145,6.041,4.267,9.061,6.4.195.137.373.3.589.478-.206.367-.319.789-.594.992a1.312,1.312,0,0,1-1.059.236c-2.919-1.2-5.885-2.313-8.694-3.733-3.2-1.616-3.935-3.87-3.335-7.441a33.209,33.209,0,0,1,1.292-5.417,9.129,9.129,0,0,1,1.944-3.065c2.01-2.171,4.082-4.293,6.264-6.288a7.668,7.668,0,0,1,5.053-1.723,25.524,25.524,0,0,1,8.3,1.238,19.652,19.652,0,0,0,4.1.36c.2-1.519.379-2.891.587-4.47a12.973,12.973,0,0,1-1.374-.139,3.083,3.083,0,0,1-.784-.437,4.792,4.792,0,0,1-3.21,2.145,4.546,4.546,0,0,1-2.486.118c-1.588-.6-3.1-1.468-3.542-3.311.137-.137.272-.274.409-.409.124.272.229.553.375.814,1.417,2.524,3.564,1.978,5.188.641a8.867,8.867,0,0,0,.757-.748c1.115-1.177,1.117-1.314.439-2.754-.407-.87-.739-1.774-1.125-2.713-.171.139-.283.184-.315.261-.232.557-.309,1.459-.695,1.618a16.662,16.662,0,0,1-3.606.889,1.3,1.3,0,0,1-.971-.553c-1.633-2.28-3.221-4.592-5-7.147-1.112.549-2.387,1.254-3.725,1.813a25.239,25.239,0,0,1-3.712,1.211c-.343.084-.851-.249-1.2-.5-.482-.351-.887-.81-1.328-.9-1.1.261-2.2.523-3.384.8.041.066-.037-.006-.052-.092a2.782,2.782,0,0,0-1.481-2.248c-1.016-.538-.883-1.742-.821-2.765a14.535,14.535,0,0,1,.227-1.442,21.4,21.4,0,0,1-3.221-.382,5.249,5.249,0,0,1-4.121-5.3,3.877,3.877,0,0,1,2.559-3.536,8.149,8.149,0,0,1-.722-1.146c-.317-.744-.894-.787-1.552-.679a2.943,2.943,0,0,1-3.088-1.684c-.156-.343-.437-.795-.733-.859-.242-.054-.683.337-.878.634-.534.819-1.258,1.6-.982,2.713.3,1.228,1.644,1.824,3.335,1.483a4.07,4.07,0,0,1,.887-.124,4.4,4.4,0,0,1-3.684.763c-2.2-.489-2.814-1.911-1.7-3.954a17.7,17.7,0,0,1,1.757-2.079,8.164,8.164,0,0,0,.716-1.331c.152-.3.291-.6.454-.937-2.336-1.926-1.222-5.75.793-7.1.289-.193.33-.746.5-1.123s.369-.737.6-1.194a8.266,8.266,0,0,1-4.17-4.466,5.409,5.409,0,0,1,.982-5.848,6.573,6.573,0,0,1-2.621-4.224,6.327,6.327,0,0,1,1.059-4.854,9.938,9.938,0,0,1,6.6-4.742,6.1,6.1,0,0,0-.459-1.056c-1.8-2.645-.409-7.876,3-9.294,1.136-.474,1.012-1.335,1.14-2.081a6.785,6.785,0,0,1,3.688-4.884,2.226,2.226,0,0,0,1.187-1.412,8.589,8.589,0,0,1,5.6-5.591c2.162-.831,4.4-1.474,6.6-2.207a1.41,1.41,0,0,0,.306-.229c-.564-.9-1.131-1.8-1.691-2.689l-3.328.962a1.53,1.53,0,0,1,.788-2.01A11.928,11.928,0,0,1,408.4,42.3c2.811-.39,4.427,1.226,5.07,4.048a8.532,8.532,0,0,1-.384,5.64,10.454,10.454,0,0,0,1.6.3.845.845,0,0,0,.656-.454c.969-3.013,3.229-4.605,6-5.576.589-1.286-.253-2.169-.722-3.227a7.623,7.623,0,0,1,1.125-8.051c1.6-2.167,3.945-2.9,6.463-3.223,2.1-.266,4.2-.426,6.3-.662a10.929,10.929,0,0,1,2.237-.347,3.405,3.405,0,0,1,2.694,2.092c.137.276.3.538.392.69,1.372-.609,2.707-1.168,4-1.807a1.145,1.145,0,0,0,.512-.838,3.658,3.658,0,0,1,1.931-3.45,3.8,3.8,0,0,1,4.138.435,1.06,1.06,0,0,0,1.269.107c3.885-1.834,7.453-.9,10.893,1.29.943.6,2.029.975,3.032,1.487a3.33,3.33,0,0,1,1.9,3.375,5,5,0,0,0,.071.731Zm5.147,7.987c.079.253.161.506.24.759l.159-.045c-.077-.3-.155-.611-.232-.915a10.78,10.78,0,0,0-1.264-3.094c-.686-.821-2.917-.394-3.922.446,1.8.741,3.7,1.279,5.017,2.852ZM426.9,141.308l-.292-.187c.047.129.092.259.139.388.264.782.467,1.594.8,2.344a22.36,22.36,0,0,0,6.946,8.69c2.615,2.008,5.248,3.971,8.448,4.935,1.826.551,3.776.735,5.54,1.423a3.836,3.836,0,0,0,2.934-.21,18.364,18.364,0,0,0,3.116-1.41,31.844,31.844,0,0,0,13.254-13.893c-2.094,0-4.3.118-6.491-.039a12.493,12.493,0,0,1-4.7-.966c-3.409-1.74-6.232-4.177-6.872-8.272-.236-1.507-.244-3.047-.341-4.344-1.029-.323-2.014-.6-2.968-.96-.175-.066-.317-.454-.309-.69,0-.122.371-.339.566-.332,1.194.045,2.385.144,3.29.206,2.831-3.9,6.993-4.892,11-6.191-1.132.034-2.263.173-3.388.146-.384-.009-1.1-.461-1.078-.662.06-.714-.049-1.485.971-1.92a17.116,17.116,0,0,1,7.338-1.416c1.9.062,4.087-.118,4.668,2.43,1.579-1.129,3.159-1.845,5.321-.96-.107-1.423-.155-2.733-.317-4.029-.118-.941-.36-1.783.656-2.481a19.561,19.561,0,0,0,2.267-2.1c-.427-.737-.765-1.318-1.044-1.8-1.179.051-2.31.131-3.44.111-.139,0-.461-.686-.371-.808.474-.632.223-1.054-.263-1.549-.122.146-.214.253-.3.365a1.625,1.625,0,0,1-2.115.336c-.2-.09-.054-1.067.039-1.622.047-.287.388-.517.473-.808.06-.206-.086-.47-.139-.709a2.069,2.069,0,0,0-.583.218c-.3.232-.517.607-.844.759-.353.163-1.05.306-1.146.159a2.4,2.4,0,0,1-.227-1.3,3.168,3.168,0,0,1,.347-.917q-2.415,1.093-3.332.1c.27-.41.551-.832.923-1.393-.649.124-1.172.178-1.665.328-1.922.585-2.993-.3-2.687-2.437-.429.049-.99-.054-1.189.167-1.115,1.239-2.688.761-4.014,1.166-.15.045-.386-.195-.611-.317.281-.484.51-.885.769-1.335a1.647,1.647,0,0,0-1.337,1.136c-.388.937-1.989,1.862-2.576,1.314-.945-.883-2-.639-2.944-.512-1.611.216-3.321-.934-4.837.351-1.129-.495-1.74.339-2.54.877-.514.345-1.153.446-1.372,1.155-.047.152-.332.24-.521.334-.339.167-.686.315-.941.431a4.24,4.24,0,0,1-2.1-3.9c-.825.874-1.335,1.794-2,2.584-.821.977.707,1.86-.116,3.06-.3-1.074-.544-1.918-.759-2.681-.606-.232-1.2-.454-2.049-.778a10.113,10.113,0,0,1-.011,1.41c-.128.821.6,1.95-.662,2.366a4.549,4.549,0,0,1-1.708-.18,1.245,1.245,0,0,0-.266.491,3.852,3.852,0,0,1-2.158,3.02c-.778.448-.645,1.148-.332,1.847.03.064-.056.18-.111.347-.289-.112-.547-.208-.677-.259-2.261,3.06-2.557,6.708-3.549,10.252a7.154,7.154,0,0,0,.761,0c2.255-.285,4.5-.688,6.766-.84a19.1,19.1,0,0,1,6.723.57c3.11.917,6.165,1.854,8.343,4.58.525.658.654.994.324,1.607-.139-.039-.334-.152-.4-.1-.827.647-1.307.111-1.969-.386a16.523,16.523,0,0,0-3.872-2.372,26.165,26.165,0,0,0-11.429-1.541c-1.731.137-3.455.405-5.235.619a12.7,12.7,0,0,1,.244,1.652,34.307,34.307,0,0,0,1.566,8.8c.18.654.448,1.528.949,1.809,1.987,1.1,4,2.439,6.163,2.876,2.254.457,4.7.034,7.057-.111,2.889-.18,4.2-2.093,4.871-4.659.394-1.513.786-3.034,1.309-4.5.167-.469.845-1.155,1.138-1.087a2.317,2.317,0,0,1,1.23,1.191,2.373,2.373,0,0,1,.045,1.429c-.283,1.436-.617,2.861-.962,4.284-.673,2.784-1.9,5.126-5.006,5.771-1.6.332-3.245.482-4.854.793a11.271,11.271,0,0,1-6.53-.634c-.253-.1-.675-.3-.771-.2-.906.892-1.4.03-1.986-.42Zm39.063-17.121c-.707.064-1.342.071-1.957.187a35.157,35.157,0,0,0-11.452,4.536.986.986,0,0,0-.56,1.346c.56,1.744.814,3.587,1.387,5.327.651,1.985,1.772,3.682,3.995,4.2a43.2,43.2,0,0,0,5.242,1.018c2.147.23,4.3.242,6.253-1.039,2.246-1.475,3.233-3.789,4.17-6.116.525-1.3.806-2.7,1.269-4.307-1.539,1.408-3.459.99-5.42-.142C466.515,127.83,465.622,126.506,465.965,124.187ZM482.5,121.2l-3.206-6.223c-.514,1.183-.9,2.083-1.295,2.981l.18.379c.979-.827,1.429-.1,1.807.424a5.015,5.015,0,0,1,.968,2.008c.208,1.322.022,2.717.311,4.014a3.125,3.125,0,0,1-.48,2.428c-.268.465-.561.913-.844,1.369l.148.221c.538-.193,1.266-.229,1.577-.609a30.509,30.509,0,0,0,3.135-4.363,14.282,14.282,0,0,0,.937-3.365l-.315.116a2.39,2.39,0,0,1-.343-.754,3.513,3.513,0,0,0-2.484-3.418c-.707-.255-1.4-.549-2.1-.825l-.142.255A6.967,6.967,0,0,1,482.5,121.2Zm26.018,1.157a12.432,12.432,0,0,0,6.65-3.817c.9-1.269.812-2.711-.362-3.311a7.741,7.741,0,0,0-2.321-.48c-.761-.118-.926.309-.836.975a3.035,3.035,0,0,1-1.468,3.082c-1.425.945-2.912,1.8-4.327,2.659.328.294.836.752,1.425,1.281.354-.626.776-1.376,1.286-2.28a5.738,5.738,0,0,1,.077.785c-.023.368-.081.735-.126,1.1Zm-37.31-.873a10.359,10.359,0,0,1-.118,1.11c-.371,1.613-.335,1.787.988,2.535a2.438,2.438,0,0,0,1.2.261c.773-.015,1.551-.23,2.314-.176,1.639.114,2.726-.872,3.879-1.764.095-.073.212-.231.191-.319-.251-1.1-.527-2.19-.724-3l-7.726,1.35ZM433.723,31.669c-1.847.362-3.536.594-5.167,1.035-3.817,1.035-5.319,3.7-4.9,6.663,1.738-2.417,4.232-2.78,6.9-2.831.626-2.591.823-2.9,3.169-4.867Zm-16.8,83.436a14.171,14.171,0,0,0-.911,2.811c-.066.553.45,1.177.7,1.768.081.189.154.382.238.57,1.119,2.516.851,5.188.8,7.813-.037,1.676,1,2.469,2.136,3.474-.143-1.11-.272-2.045-.386-2.981-.182-1.509.079-3.1-.911-4.457a2.232,2.232,0,0,1-.405-1.174c-.019-.546-.247-1.307.757-1.4.206.579.407,1.14.606,1.7l1.241-.624c-1.719-2.289-1.326-5.657-3.862-7.5Zm-21.617,6.81c-1.372-1.067-2.726-2.061-2.644-3.9h-4.168c-.686,2.7,2.413,5.9,5.767,5.43l1.046-1.532Zm-4.4-55.8a6.4,6.4,0,0,0-3.073,4.273c-.446,1.85.1,3.122,1.734,3.59-.452-1.513.564-2.3,1.457-3.163a1.618,1.618,0,0,0,.392-.724c.221-.838.4-1.689.621-2.655-.261-.3-.671-.785-1.132-1.322Zm92.662-26.573a8.228,8.228,0,0,1-.845-.626c-1.129-1.1-1.824-1.262-3.178-.484a8.967,8.967,0,0,0-3.568,4.252c.894,0,1.639.024,2.383-.011.293-.013.726-.064.848-.255C480.169,40.9,481.688,40.233,483.563,39.547Zm-45.953-3.515c-.439-.774-.767-1.412-1.155-2.014a1.467,1.467,0,0,0-2.207-.525,6.875,6.875,0,0,0-2.436,3.373c2.042.358,3.921.529,5.8-.831Zm12.4-7.719a3.73,3.73,0,0,0-3.885-.3,2.912,2.912,0,0,0-1.277,3.294c.847-.073,1.646-.114,2.434-.227a1.434,1.434,0,0,0,.814-.411C448.769,29.9,449.393,29.08,450.008,28.313ZM421.753,47.581a7.518,7.518,0,0,0-5.077,5.154l1.8.784,3.36-4.888.225.139c-.092-.364-.187-.731-.3-1.189ZM467.4,89.717c0,.1-.009.206-.013.311a6.769,6.769,0,0,0,.9.641c.866.433,1.76.81,2.632,1.232.775.375,1.526.909,2.353.094.071-.069.268-.008.587-.008-.251.441-.433.759-.774,1.357,1.646-.8,1.618.885,2.477,1.279.578.266.9,1.161,1.856.624a6.452,6.452,0,0,0-.634-.941,17.346,17.346,0,0,0-8.2-4.811c-.349-.092-.787.142-1.183.225Zm-84.464-9.046a42.268,42.268,0,0,1,4.779-3.174c1.057-.529,1.79-1,1.847-2.207-2.758-.4-6.438,2.7-6.628,5.381Zm84.441,43.454c-.266,2.4.09,3.236,1.849,4.155a5.9,5.9,0,0,0,5,.006c-.463-.092-.939-.019-1.382-.1-2.546-.489-3.9-.769-3.866-3.6,0-.15-.281-.405-.463-.439a6.236,6.236,0,0,0-1.132-.021Zm-78.732-23.042c.534,1.05.986,2.085,1.571,3.037a.64.64,0,0,0,1.194-.092,6.674,6.674,0,0,0,.42-2.237c.024-.917-.69-1.367-1.582-1.134C389.772,100.781,389.3,100.908,388.641,101.083Zm5.891-38.068c.441-1.295.866-2.544,1.292-3.793-1.431-.394-3.022,1.8-2.816,3.793Zm104.857-2.06c2.458-1.222,3.431-3.534,2.9-6.956-1.125,1.052-.442,2.475-1.037,3.489C500.619,58.57,500.06,59.7,499.389,60.955Zm-22.148,68.379c1.022-1.4,1.886-2.576,2.75-3.755-.077-.1-.152-.206-.229-.308l-2.52,1.551Zm24.711-4.588,3.409-.713-.066-.236-1.189-.412.032-.231.808-.187c-.244-.351-.461-.66-.7-1l-2.293,2.781Zm-36.566-3.6c-.006.094-.013.189-.017.285l3.8.377c.032-.323.058-.579.1-.958-1.354.1-2.617.2-3.879.3ZM392.83,65.261c.242.576.433,1.033.639,1.524.547-.628,1.029-1.185,1.627-1.873Zm77.176-28.076c-1.646-1.183-2.342-1.11-2.432,0Zm13.983,78.8a1.658,1.658,0,0,0-2.377-1.35Zm2.906-1.16.737,2.505C488.01,115.39,487.956,115.191,486.9,114.831Zm-5.207-2.563c.559.077,1.069.146,1.575.218-.268-.947-.949-1.32-1.667-.911C481.628,111.816,481.66,112.055,481.688,112.268Zm-13.6-9.2c-.038-.064-.083-.161-.1-.157a.863.863,0,0,0-.257.124c-.011.007.045.109.071.167.092-.045.187-.088.285-.135Z" transform="translate(-267.548 -27)" fill="#242424"/>
          <path id="Path_4691" data-name="Path 4691" d="M329.518,434.351a9.575,9.575,0,0,1-4.342,1.436c-1.912.358-3.819.767-5.205,2.2a11.634,11.634,0,0,0-1.791,2.85c-.72,1.406-1.213,2.938-2.012,4.292-1.543,2.619-3.317,5.1-4.845,7.73-3.21,5.529-6.695,10.906-8.913,16.977a43.362,43.362,0,0,1-3.424,6.405c-2.578,4.5-5.263,8.945-7.769,13.486-1.016,1.841-1.53,3.958-2.529,5.81-1.791,3.324-3.771,6.545-5.679,9.807-.853,1.459-1.661,2.951-2.593,4.361-.859,1.3-1.845,2.456-3.733,1.776a3.958,3.958,0,0,0-1.7-.013c-1.5.176-1.961.709-2.28,2.246-.088.42-.5.773-.757,1.159a4.111,4.111,0,0,1-.735-.986c-.617-1.8-.323-3.18,1.815-3.735a6.738,6.738,0,0,1,2.2-.579c1.556.186,2.032-.885,2.6-1.879,2.083-3.673,4.2-7.331,6.17-11.064,1.129-2.139,1.948-4.44,3.013-6.618,1.236-2.529,2.456-5.079,3.917-7.479,2.85-4.68,5.861-9.264,8.812-13.884a11.628,11.628,0,0,1,1.256-1.8,2.774,2.774,0,0,1,1.515-.984c.808-.047,1.024-.516,1.281-1.054q4.474-9.373,8.939-18.753a34.417,34.417,0,0,1,2.115-4.329c2.109-3.172,4.275-6.388,8.473-7.057,2.03-.324,4.085-.5,6.127-.74l.083.425Z" transform="translate(-196.856 -293.035)"/>
          <path id="Path_4692" data-name="Path 4692" d="M231.379,669.959c.356,1.646-.688,2.675-1.6,3.8a5.01,5.01,0,0,1-3.472,1.886c-1.74.218-2.313,1.429-1.749,3.129a1.015,1.015,0,0,1-.309.909,6.054,6.054,0,0,0-2.6,4.711c-.4,3.006-1.929,5.634-3.159,8.353-1.676,3.707-3.283,7.447-5.055,11.109-.982,2.029-2.242,3.923-3.371,5.882-.2.351-.382.716-.679,1.277a30.734,30.734,0,0,1,15.693,1.5c-.015.139-.028.279-.043.416-1.952-.174-3.9-.349-5.692-.508l-4.215,8.913-.283-.3c-.679,0-1.361.017-2.04,0-1.472-.043-2.944-.1-4.564-.163-1.4,4.123-2.392,8.653-4.357,12.845-2.077-1.237-1.192-3-.806-4.376,1.359-4.865,2.945-9.667,4.47-14.485.208-.66.244-1.234-.469-1.5a.778.778,0,0,1-.366-1.29c3.129-4.646,3.907-10.19,5.891-15.269.947-2.422,1.9-4.85,3.015-7.2a45.658,45.658,0,0,0,3.422-9c.332-1.4,2.805-2.927,4.447-2.456-.422-1.873-.191-3.62,1.386-4.811a2.8,2.8,0,0,1,3.868.111c.922-1.2,1.794-2.342,2.666-3.482l-.026-.021ZM210.409,719.4l4.58-.249c.887-2.267,1.734-4.427,2.58-6.588-.917-.339-1.318-.011-1.687.763a2.209,2.209,0,0,1-3.909.609c-.517,1.8-1.018,3.555-1.567,5.465Zm.628-6.272c-.354.291-.707.435-.778.664-.54,1.776-1.027,3.568-1.539,5.39h.675c.534-1.967,1.052-3.888,1.639-6.054Z" transform="translate(-152.158 -447.336)"/>
          <path id="Path_4693" data-name="Path 4693" d="M723.211,487.915c1.025,2.057,1.138,4.393,1.541,6.72-2.025-.021-2.085-1.682-2.644-2.837a19.375,19.375,0,0,1-.816-2.5c-.632.476-1.177.949-1.783,1.326-1.269.787-2.55,1.558-3.868,2.254-.325.171-.818.026-1.264.026.881-1.005,1.547-1.912,2.355-2.666,2.154-2.01,4.368-3.954,6.557-5.923.1-.094.218-.182.317-.285.493-.525,1.451-1.129,1.382-1.567a3.329,3.329,0,0,0-1.976-2.655,19.379,19.379,0,0,0-3.172-1.033,5.937,5.937,0,0,1-4.562-3.962c-2.01-5.193-4.192-10.323-6.11-15.548a47.217,47.217,0,0,1-2.554-10.974c-.047-.41-.555-.868-.962-1.121-3-1.86-6.046-3.649-9.039-5.522-.825-.516-1.965-.765-2.177-1.967a1.439,1.439,0,0,1,.062-.9c.081-.139.514-.15.767-.1,3.7.724,6.74,2.775,9.734,4.9.718.51,1.331,1.17,2,1.753.18.156.454.448.572.4,1.07-.437,1.05.427,1.22,1a214.28,214.28,0,0,0,7.372,20.416c1.136,2.762,2.229,5.542,3.4,8.289a2.335,2.335,0,0,0,1.029.967c1.217.664,2.473,1.251,3.714,1.871a3.933,3.933,0,0,1,1.982,2.835c.148.611-.043,1.327.748,1.676a1.206,1.206,0,0,1-.139.872c-1.217,1.457-2.481,2.876-3.688,4.256Z" transform="translate(-473.704 -296.121)"/>
          <path id="Path_4694" data-name="Path 4694" d="M640.94,522.3a5.463,5.463,0,0,1,.382,1.629,1.6,1.6,0,0,1-.726,1.177,31.98,31.98,0,0,1-3.236,1.086c.452.347,1.044.748,1.568,1.226.45.409,1.507.489,1,1.547-2.019-.9-4.057-1.674-5.949-2.709a31.7,31.7,0,0,1-4.007-2.893c-1.226-.95-2.418-1.948-3.587-2.968a1.629,1.629,0,0,1-.529-.969,4.368,4.368,0,0,1,.245-1.254,3.789,3.789,0,0,1,1,.433c.752.63,1.406,1.463,2.6.827,0-.448-.034-.913.011-1.369a5.69,5.69,0,0,1,.259-.949c.3.111.607.223.911.332l-.142-.206,2.559-1.387a15.328,15.328,0,0,0-.418-1.813c-.071-.208-.446-.347-.709-.45a.971.971,0,0,1-.649-1.423c.317-.641.851-.859,1.451-.187.1.116.416.017.609.086.358.124.7.3,1.048.448-.193.362-.366.735-.589,1.078-.083.129-.285.182-.437.274.015.056.034.114.045.171.232,1.226.695,2,2.192,1.5a8.854,8.854,0,0,1,2.019-.058,9.307,9.307,0,0,0,1.438-.39c.272.654.641,1.535,1.048,2.51.866.1,2.126-.137,2.4,1.234.384,1.883-.021,2.593-1.809,3.467Zm-2.546-6.337c-2.445.7-4.667,1.933-7.2,1.841.137.737.334,1.545.431,2.366a3.832,3.832,0,0,0,1.9,3.341c.491.259.919.634,1.388.937a.937.937,0,0,0,.54.2c1.509-.219,3.013-.469,4.488-.707q-.775-4.005-1.543-7.983Z" transform="translate(-428.892 -343.79)"/>
          <path id="Path_4695" data-name="Path 4695" d="M398.409,531.354c-.825.225-1.044-.124-1.024-.864.049-2.085.053-4.17.077-6.255.043-3.722-.034-7.451.193-11.163a10.954,10.954,0,0,0-.83-4.4c-.973-2.8-1.924-5.613-2.882-8.42-.077-.225-.234-.48-.185-.681a10.451,10.451,0,0,1,.5-1.318c.6.261,1.537-.51,1.867.673.334,1.2.862,2.348,1.179,3.553.714,2.715,1.494,5.428,1.967,8.191a28.827,28.827,0,0,1,.09,5.358c-.028,1.449-.176,2.9-.255,4.346-.081,1.517-.124,3.039-.223,4.554C398.741,527.04,398.572,529.153,398.409,531.354Z" transform="translate(-277.153 -335.079)"/>
          <path id="Path_4696" data-name="Path 4696" d="M676.274,482.748a155.421,155.421,0,0,0,7.918,17.53c-.551.9-.727.926-1.3.056-3.21-4.867-6.253-9.828-8.109-15.406C674.193,483.153,674.624,482.63,676.274,482.748Z" transform="translate(-460.718 -324.94)"/>
          <path id="Path_4697" data-name="Path 4697" d="M267.894,925.02a3.562,3.562,0,0,1-.994.324c-4.23.09-8.463.231-12.691.191a50.854,50.854,0,0,1-6.17-.634c-.36-.047-.673-.468-1.007-.714.341-.24.673-.677,1.02-.688,1.772-.056,3.551-.009,5.326.019.347,0,.692.1,1.042.122,3.787.289,7.571.581,11.358.851.677.049,1.361.006,2.042.006.024.174.049.349.073.523Z" transform="translate(-181.235 -613.078)"/>
          <path id="Path_4698" data-name="Path 4698" d="M444.572,463.383c.1.456.416.99.281,1.357q-3,8.062-6.125,16.075c-.156.405-.8,1.024-.954.953a1.282,1.282,0,0,1-.735-1.751c.542-1.385,1.127-2.754,1.712-4.121q2.527-5.885,5.07-11.765c.107-.247.227-.484.341-.729l.409-.021Z" transform="translate(-305.38 -312.289)"/>
          <path id="Path_4699" data-name="Path 4699" d="M478.124,534.049c-.386-2.051-.776-4.1-1.153-6.15-.4-2.162-.816-4.32-1.16-6.489a25.065,25.065,0,0,1-.317-3.573c0-.36.435-.724.673-1.086.266.317.709.6.767.956q.62,3.835,1.1,7.689c.311,2.479.572,4.963.806,7.451a4.417,4.417,0,0,1-.279,1.285c-.146-.028-.291-.055-.437-.081Z" transform="translate(-330.595 -347.18)"/>
          <path id="Path_4700" data-name="Path 4700" d="M510.512,469.6c-.812-.39-1.635-.756-2.432-1.174q-6.207-3.253-12.4-6.53a9.5,9.5,0,0,1-1.528-.915,2.976,2.976,0,0,1-.538-.921,2.732,2.732,0,0,1,.975-.289,3.269,3.269,0,0,1,1.264.441q7.21,4.211,14.392,8.463a2.6,2.6,0,0,1,.506.551l-.238.373Z" transform="translate(-342.439 -309.927)"/>
          <path id="Path_4701" data-name="Path 4701" d="M713.375,522.049c-.557-4.067,3.358-12.809,5.9-13.387-.529,1.3-1.031,2.531-1.532,3.763-1.142,2.8-2.272,5.612-3.442,8.4a7.031,7.031,0,0,1-.93,1.222Z" transform="translate(-486.077 -341.891)"/>
          <path id="Path_4702" data-name="Path 4702" d="M707.293,476.056c.741-5.188,1.685-10.323,3.967-15.115.107-.019.214-.038.322-.056.112.336.358.694.309,1.007a28.61,28.61,0,0,1-.711,3.392c-.954,3.343-1.955,6.673-2.957,10a5.24,5.24,0,0,1-.512.951c-.139-.06-.276-.12-.416-.182Z" transform="translate(-482.136 -310.657)"/>
          <path id="Path_4703" data-name="Path 4703" d="M285.842,668.046c.334-1.072.8-1.352,1.483-.725a13.894,13.894,0,0,1,4.794,8.861c.015.138,0,.277-.232.547-.926-1.481-1.794-3-2.79-4.432-1.027-1.47-2.18-2.85-3.277-4.271l.024.02Z" transform="translate(-206.594 -445.401)"/>
          <path id="Path_4704" data-name="Path 4704" d="M705.967,557.548c1.031.011,1.311.354.9,1.1-1.027,1.882-2.1,3.744-3.223,5.565-.3.491-.756,1-1.567.532-.553-.321-.718-.654-.4-1.144q1.912-2.98,3.889-5.915c.086-.126.358-.128.4-.143Z" transform="translate(-478.361 -373.85)"/>
          <path id="Path_4705" data-name="Path 4705" d="M390.6,289.668c1.457-1.9,1.3-3.1.667-3.733.656-.474,1.093-.349,1.35.388C393.016,287.46,392.17,288.98,390.6,289.668Z" transform="translate(-275.095 -196.098)"/>
          <path id="Path_4706" data-name="Path 4706" d="M657.619,362.5c.765-.643-.1-1.727.576-2.394l.536.152q-.354,1.177-.707,2.355l-.407-.116Z" transform="translate(-449.66 -244.775)"/>
          <path id="Path_4707" data-name="Path 4707" d="M387.861,297.911l-.7.5c-.045-.06-.09-.12-.137-.178l.7-.521c.045.066.092.131.137.2Z" transform="translate(-272.756 -203.983)"/>
          <path id="Path_4708" data-name="Path 4708" d="M389.047,297.095l.521-.326.144.227-.527.3C389.139,297.225,389.092,297.161,389.047,297.095Z" transform="translate(-274.079 -203.364)"/>
          <path id="Path_4709" data-name="Path 4709" d="M407.448,881.827l.637.008q1.816,1.414,3.63,2.831l-.219.29-4.048-3.131Z" transform="translate(-286.109 -585.851)" fill="#fff"/>
          <path id="Path_4710" data-name="Path 4710" d="M838.077,732.777l-2.394,1.093c-.062-.142-.122-.285-.184-.427l2.527-.992C838.043,732.56,838.06,732.67,838.077,732.777Z" transform="translate(-565.952 -488.196)" fill="#fff"/>
          <path id="Path_4711" data-name="Path 4711" d="M589.758,734.357c.814,2.017.129,4.01-.249,5.951-.8,4.091-1.762,8.152-2.724,12.211-.979,4.126-2.04,8.231-3.062,12.346-.336,1.355-.647,2.715-1.013,4.061-.079.291-.39.774-.523.75-.484-.081-1.069-.167-.973-.958.124-1.02.137-2.051.253-3.073.259-2.3.519-4.607.838-6.9.33-2.385.617-4.783,1.125-7.134.975-4.517,2.081-9,3.161-13.5.2-.836.626-1.627.767-2.467.182-1.08.786-1.32,1.731-1.2a3.192,3.192,0,0,0,.682-.052s-.011-.03-.011-.03Z" transform="translate(-399.704 -489.442)"/>
          <path id="Path_4714" data-name="Path 4714" d="M682.5,782.894c-1.082.675-2.128,1.421-3.255,2.014-4.273,2.246-8.887,3.615-13.456,5.086-3.557,1.144-7.14,2.215-10.719,3.291a9.208,9.208,0,0,1-1.511.2c-.047-.113-.1-.227-.143-.341a12.182,12.182,0,0,1,1.871-1.1q9.036-3.4,18.1-6.731c2.214-.818,4.428-1.637,6.654-2.413a23.11,23.11,0,0,1,2.246-.551c.073.184.146.366.219.551Z" transform="translate(-446.912 -520.814)"/>
          <path id="Path_4716" data-name="Path 4716" d="M653.371,779.554a5.642,5.642,0,0,1,2.153-4.43c4.629-3.373,9.307-6.678,13.962-10.012,1.145-.819,2.252-1.693,3.431-2.458a3.315,3.315,0,0,1,1.281-.2c-.152.427-.173,1.016-.474,1.254-3.557,2.822-7.127,5.632-10.756,8.362-2.3,1.731-4.681,3.362-7.074,4.963C654.88,777.715,653.609,778.069,653.371,779.554Z" transform="translate(-446.884 -507.812)"/>
          <path id="Path_4718" data-name="Path 4718" d="M591.912,698.071c-1.127-1-2.265-1.984-3.375-3-1.7-1.558-3.4-3.116-5.055-4.721a1.7,1.7,0,0,1-.572-2.225c3.12,3.373,6.114,6.611,9.108,9.847C591.982,698,591.946,698.036,591.912,698.071Z" transform="translate(-400.685 -459.216)"/>
          <path id="Path_4719" data-name="Path 4719" d="M620.057,739.592c-1.963.339-3.935.664-5.814-.367-.332-.182-.517-.632-.769-.958.358-.185.748-.572,1.067-.521,1.682.279,3.348.654,5.01,1.035.24.056.431.317.645.482-.047.109-.092.216-.139.325Z" transform="translate(-420.801 -491.655)"/>
          <path id="Path_4722" data-name="Path 4722" d="M664.043,753.449a12.381,12.381,0,0,1-3.78,4.016,25.329,25.329,0,0,1-2.578,1.725,24.908,24.908,0,0,1,6.215-5.955Z" transform="translate(-449.704 -501.783)"/>
          <path id="Path_4726" data-name="Path 4726" d="M517.694,690.258c.261-1.022.5-2.051.812-3.058.045-.146.48-.3.669-.236.225.071.574.418.536.555a4.483,4.483,0,0,1-1.654,2.859C517.936,690.338,517.814,690.3,517.694,690.258Z" transform="translate(-358.184 -458.45)"/>
          <path id="Path_4728" data-name="Path 4728" d="M520.322,733.348a1.476,1.476,0,0,1,.328-2.042.582.582,0,0,1,.536.086.61.61,0,0,1,.062.562c-.268.476-.6.913-.926,1.393Z" transform="translate(-359.732 -487.428)"/>
          <path id="Path_4729" data-name="Path 4729" d="M477.791,767.562l-2.235-.819C476.495,765.766,477.352,766.1,477.791,767.562Z" transform="translate(-330.635 -510.252)"/>
          <path id="Path_4730" data-name="Path 4730" d="M498.271,721.029q.7-.55,1.4-1.1c.112.156.341.429.315.454-.394.409-.821.786-1.241,1.172Z" transform="translate(-345.486 -480.01)"/>
          <path id="Path_4731" data-name="Path 4731" d="M646.525,708.672q.695-.749,1.391-1.5c.075.071.15.141.223.212l-1.389,1.5Z" transform="translate(-442.408 -471.671)"/>
          <path id="Path_4732" data-name="Path 4732" d="M675.634,751.471l1.228-.934c.054.071.107.139.159.21-.413.313-.829.626-1.243.941l-.144-.214Z" transform="translate(-461.439 -500.02)"/>
          <path id="Path_4733" data-name="Path 4733" d="M682.029,694.092c.1-.133.2-.266.3-.4.052.039.1.08.152.118-.09.148-.18.3-.27.446-.062-.056-.122-.111-.185-.165Z" transform="translate(-465.618 -462.857)"/>
          <path id="Path_4734" data-name="Path 4734" d="M593.291,951.8c1.631-.068,2,1.082,2.477,2.051a33.755,33.755,0,0,1,3.157,9.254,14.187,14.187,0,0,1-.2,6.8,6.231,6.231,0,0,1-1.05,1.658c-.084.114-.373.073-.568.1a3.7,3.7,0,0,1-.069-.505,20.434,20.434,0,0,0-.028-3.938c-.651-3.246-1.489-6.459-2.3-9.671-.394-1.552-.917-3.071-1.346-4.616A5.239,5.239,0,0,1,593.291,951.8Z" transform="translate(-407.606 -631.598)"/>
          <path id="Path_4735" data-name="Path 4735" d="M580.937,969.055a28.965,28.965,0,0,1,.193,3.371c-.152,3.306-.375,6.61-.649,9.909a8.973,8.973,0,0,1-.692,2.081c-.163-.017-.324-.034-.487-.055a30.155,30.155,0,0,1-.482-3.67c-.032-2.335.126-4.673.144-7.009.008-1.344-.133-2.688-.163-4.031a2.453,2.453,0,0,1,2.342-2.3c.292.028.555.362.832.555-.283.313-.568.626-1.037,1.147Z" transform="translate(-398.132 -641.76)"/>
          <path id="Path_4736" data-name="Path 4736" d="M558.549,985.5c.384-2.181.75-4.072,1.042-5.972.245-1.592.36-3.2.617-4.794a27.621,27.621,0,0,1,.876-4.083,2.644,2.644,0,0,1,3.333-1.665.859.859,0,0,1,.484.66c-.017.279-.315.787-.463.776-2.237-.15-2.194,1.536-2.54,2.991-.9,3.757-1.847,7.5-2.795,11.245a4.005,4.005,0,0,1-.555.845Z" transform="translate(-384.893 -642.755)"/>
          <path id="Path_4737" data-name="Path 4737" d="M285.458,980.657c-.028-.825.251-1.2,1.02-1.271,3.587-.335,7.168-.722,10.756-1.054,1.965-.182,3.937-.3,5.906-.433,3.315-.223,6.633-.422,9.946-.651.878-.06,1.751-.193,2.627-.292l.122.405a11.488,11.488,0,0,1-1.706.519c-3.607.527-7.214,1.054-10.831,1.5-3.309.411-6.626.754-9.944,1.076-2.038.2-4.085.321-6.129.422A10,10,0,0,1,285.458,980.657Z" transform="translate(-206.356 -648.043)"/>
          <path id="Path_4738" data-name="Path 4738" d="M836.088,970.313c-.971-.083-1.121-.523-1.078-1.143A29.377,29.377,0,0,1,837,960.647a18,18,0,0,1,4.054-6.9c.414-.4,1.8-.521,2.137-.086a1.237,1.237,0,0,1,.152,1.078c-.866,1.77-1.822,3.5-2.724,5.25a47.521,47.521,0,0,0-3.913,9.47c-.084.318-.409.571-.621.858Z" transform="translate(-565.629 -632.632)"/>
          <path id="Path_4739" data-name="Path 4739" d="M861.759,957.9c-.386,0-.763.114-1.007-.019-1.175-.632-1.669.176-2.092.979-1.618,3.075-3.176,6.18-4.8,9.254a7.75,7.75,0,0,1-1.1,1.3c-.092-.056-.184-.111-.274-.167-.032-.191-.144-.412-.084-.566,1.427-3.669,2.88-7.329,4.312-11,.632-1.62,2.088-1.9,3.519-2.121.988-.154,1.6.812,1.528,2.336Z" transform="translate(-576.99 -634.045)"/>
          <path id="Path_4740" data-name="Path 4740" d="M870.143,971.553c.9-5.272,1.764-10.533,4.382-15.286a4.385,4.385,0,0,1,2.1-2.113c.454-.189,1.114-.407,1.449-.212s.454.877.525,1.365a3.96,3.96,0,0,1-.283,1.234c-.478-.508-.81-.863-1.213-1.292-2.921,5.212-4.314,11.024-6.958,16.3Z" transform="translate(-588.6 -632.948)"/>
          <path id="Path_4741" data-name="Path 4741" d="M788.768,691.607a1.621,1.621,0,0,1-1.766.609,49.676,49.676,0,0,0-8.709-1.234c-2.709-.009-5.418.793-8.13,1.2a.629.629,0,1,1-.57-1.046,10.317,10.317,0,0,1,5.353-2.16,21.878,21.878,0,0,1,12.92,2.128c.319.148.613.349.919.527A.165.165,0,0,1,788.768,691.607Z" transform="translate(-522.543 -459.612)"/>
          <path id="Path_4742" data-name="Path 4742" d="M784.07,734.647a5.35,5.35,0,0,1-1.022-.184,59,59,0,0,0-12.151-3.251,6.721,6.721,0,0,1-1.515-.412c-.263-.111-.443-.418-.66-.636.234-.208.454-.576.7-.594a14.389,14.389,0,0,1,2.882-.01,23.947,23.947,0,0,1,7.4,1.971c1.575.757,3.054,1.719,4.575,2.587l-.208.531Z" transform="translate(-522.296 -486.26)"/>
          <path id="Path_4743" data-name="Path 4743" d="M522.7,315.361a10.322,10.322,0,0,0-3.744-3.855,5.008,5.008,0,0,1,3.648,2.955,2.651,2.651,0,0,0,2.758,1.652c.958.028,1.92-.032,2.876.034.315.021.611.321.915.5-.193.281-.326.649-.587.825a6.762,6.762,0,0,1-4.061.793c-.5-.007-.87.011-.92.7-.1,1.43-.6,1.7-1.991,1.194a1.335,1.335,0,0,1-.761-.634l2.064.429c.175-.476.366-.992.561-1.515-1.05-.285-2.019-.521-2.968-.818a1.707,1.707,0,0,1-.954-.568,7.122,7.122,0,0,1-.5-1.575,6.169,6.169,0,0,1,1.519-.33,12.192,12.192,0,0,1,1.952.358l.375.148c-.06-.1-.122-.191-.182-.287Z" transform="translate(-359.009 -212.999)"/>
          <path id="Path_4744" data-name="Path 4744" d="M513.992,288.9a10.565,10.565,0,0,1,13.2.292c-.259.945-1.061.716-1.644.624-1.725-.272-3.418-.823-5.147-.951a42.418,42.418,0,0,0-4.929.253,8.632,8.632,0,0,1-1.483-.219Z" transform="translate(-355.763 -196.797)"/>
          <path id="Path_4745" data-name="Path 4745" d="M569.48,361.425c-.613,1.29-1.661,1.485-2.621,1.793a7.608,7.608,0,0,1-7.012-1.114,2.433,2.433,0,0,1-.733-1.273c-.041-.135.443-.615.688-.615a8.006,8.006,0,0,1,2.051.281,13.87,13.87,0,0,1,1.526.677,6.864,6.864,0,0,0,4.775.409,7.848,7.848,0,0,1,1.329-.161Z" transform="translate(-385.261 -244.843)"/>
          <path id="Path_4746" data-name="Path 4746" d="M570.917,386.67c-2.315.379-4.618.988-6.909.09a1.853,1.853,0,0,1-.829-.923C565.93,385.245,568.367,386.37,570.917,386.67Z" transform="translate(-387.92 -261.482)"/>
          <path id="Path_4747" data-name="Path 4747" d="M548.053,336.312c-1.937-1.62-3.939-1.213-6.041-.6.789,1.2,1.982.54,2.914,1.031-.885-.088-1.774-.139-2.651-.283-.238-.038-.433-.353-.647-.54.2-.225.358-.544.609-.66a7.667,7.667,0,0,1,4.344-.343c.923.124,1.339.435,1.47,1.393Z" transform="translate(-373.831 -228.209)"/>
          <path id="Path_4748" data-name="Path 4748" d="M518.395,338.436l7.584,1.4a18.98,18.98,0,0,1-7.691-1.151c.036-.082.071-.165.107-.247Z" transform="translate(-358.572 -230.604)"/>
          <path id="Path_4749" data-name="Path 4749" d="M614.917,321.229a4.323,4.323,0,0,1-2.825,2.473,13.54,13.54,0,0,1-6.467,1.129,4.476,4.476,0,0,1-1.52-.272,1.371,1.371,0,0,1-.707-.973.861.861,0,0,1,.99-.917c1.755.064,3.513.008,5.27.034a10.016,10.016,0,0,0,5.256-1.475Z" transform="translate(-414.214 -219.355)"/>
          <path id="Path_4750" data-name="Path 4750" d="M629.326,333.5c-1.615.444-3.219.932-4.847,1.318-1.717.407-1.706.368-1.959,2.181-.09.641-.3,1.262-.454,1.895l-.3-.052c.188-1.207.362-2.413.581-3.615a.7.7,0,0,1,.416-.439c2.143-.643,4.3-1.26,6.446-1.884C629.249,333.1,629.288,333.3,629.326,333.5Z" transform="translate(-426.223 -226.987)"/>
          <path id="Path_4751" data-name="Path 4751" d="M648.218,301.306a5.668,5.668,0,0,1,.857,1.464c.077.313-.31.739-.491,1.117-.339-.208-.943-.392-.967-.63a8.053,8.053,0,0,1,.232-1.892l.366-.058Z" transform="translate(-443.115 -206.33)"/>
          <path id="Path_4752" data-name="Path 4752" d="M230.291,805.983l-1.852.671-.272-.29c.15-.341.229-.9.467-.98a5.236,5.236,0,0,1,1.558-.045C230.224,805.554,230.259,805.769,230.291,805.983Z" transform="translate(-168.902 -535.823)"/>
          <path id="Path_4753" data-name="Path 4753" d="M649.78,531.391c-1.312.322-2.619.647-3.933.962a1.651,1.651,0,0,1-2.2-1.277,6.979,6.979,0,0,1-.352-1.393.742.742,0,0,1,.409-.6c1.584-.362,3.176-.695,4.775-.986,1.069-.2,1.487.218,1.412,1.277C649.844,530.017,649.818,530.658,649.78,531.391Z" transform="translate(-440.294 -354.57)"/>
          <path id="Path_4754" data-name="Path 4754" d="M649.707,542.292c.767-.281,1.348-.529,1.952-.695.178-.049.585.114.6.227a2.253,2.253,0,0,1-.045,1.209.92.92,0,0,1-.846.345A12.672,12.672,0,0,1,649.707,542.292Z" transform="translate(-444.488 -363.417)"/>
          <text id="Design_Tech" data-name="Design    &amp;    Tech" transform="translate(159.716 233.563) rotate(31)" font-size="6" font-family="SegoeUI, Segoe UI"><tspan x="-9.958" y="0">Design </tspan><tspan x="-3.223" y="6">&amp; </tspan><tspan x="-5.931" y="12">Tech</tspan></text>
        </g>
        <g id="Group_4292" data-name="Group 4292" transform="translate(59.68 2594.254)">
          <g id="Group_4190" data-name="Group 4190" transform="translate(0 0)">
            <g id="Group_4022" data-name="Group 4022" transform="translate(0 104.338)">
              <path id="Path_3880" data-name="Path 3880" d="M969.133,2073.056H798.644a4.863,4.863,0,0,1-4.864-4.864v-8.133a1.72,1.72,0,0,1,1.719-1.719h176.78a1.72,1.72,0,0,1,1.718,1.719v8.133A4.862,4.862,0,0,1,969.133,2073.056Z" transform="translate(-792.12 -2056.679)"/>
              <path id="Path_3881" data-name="Path 3881" d="M955.843,2061.427H785.354a6.53,6.53,0,0,1-6.524-6.523v-8.135a3.382,3.382,0,0,1,3.378-3.378h176.78a3.382,3.382,0,0,1,3.378,3.378v8.135A6.53,6.53,0,0,1,955.843,2061.427Zm-173.635-14.714a.057.057,0,0,0-.057.055v8.135a3.2,3.2,0,0,0,3.2,3.2h170.49a3.2,3.2,0,0,0,3.2-3.2v-8.135a.056.056,0,0,0-.057-.055Z" transform="translate(-778.83 -2043.39)"/>
            </g>
            <g id="Group_4032" data-name="Group 4032" transform="translate(144.07)" opacity="0.5">
              <path id="Path_3891" data-name="Path 3891" d="M2076.01,1104.3l.448,1.491c.1-.625.194-1.239.286-1.855A1.655,1.655,0,0,0,2076.01,1104.3Z" transform="translate(-2076.01 -1103.94)" fill="#fff"/>
            </g>
            <g id="Group_4033" data-name="Group 4033" transform="translate(16.256 26.277)">
              <path id="Path_3892" data-name="Path 3892" d="M1081.216,1448.269H946.77a6.628,6.628,0,0,1-6.629-6.629V1363.35a7.86,7.86,0,0,1,7.86-7.86h131.986a7.86,7.86,0,0,1,7.86,7.86v78.289A6.631,6.631,0,0,1,1081.216,1448.269Z" transform="translate(-938.48 -1353.83)" fill="#fff"/>
              <path id="Path_3893" data-name="Path 3893" d="M1067.926,1436.64H933.48a8.3,8.3,0,0,1-8.29-8.29v-78.289a9.531,9.531,0,0,1,9.52-9.52H1066.7a9.531,9.531,0,0,1,9.521,9.52v78.289A8.3,8.3,0,0,1,1067.926,1436.64ZM934.71,1343.862a6.206,6.206,0,0,0-6.2,6.2v78.289a4.974,4.974,0,0,0,4.969,4.968h134.446a4.974,4.974,0,0,0,4.969-4.968v-78.289a6.206,6.206,0,0,0-6.2-6.2Z" transform="translate(-925.19 -1340.541)"/>
            </g>
            <g id="Group_4034" data-name="Group 4034" transform="translate(85.817 62.818)" opacity="0.8">
              <path id="Path_3894" data-name="Path 3894" d="M1562.02,1680.613a11.066,11.066,0,0,1,5.813-9.745,11.073,11.073,0,1,0,0,19.493A11.076,11.076,0,0,1,1562.02,1680.613Z" transform="translate(-1551.501 -1669.541)" fill="#fff"/>
            </g>
            <g id="Group_4037" data-name="Group 4037" transform="translate(19.578 29.599)" opacity="0.8">
              <path id="Path_3897" data-name="Path 3897" d="M958.422,1457.152v-78.288a6.205,6.205,0,0,1,6.2-6.2h131.987a6.2,6.2,0,0,1,1.587.214,6.186,6.186,0,0,0-4.91-2.429H961.3a6.206,6.206,0,0,0-6.2,6.2v78.289a4.974,4.974,0,0,0,4.11,4.889A4.925,4.925,0,0,1,958.422,1457.152Z" transform="translate(-955.1 -1370.45)" fill="#fff"/>
            </g>
            <g id="Group_4040" data-name="Group 4040" transform="translate(79.291 68.006)" opacity="0.2">
              <path id="Path_3899" data-name="Path 3899" d="M1574.985,1762.572V1716.26h0c-5.909,17.756-24.406,47.181-82.236,51.048h78.766A4.978,4.978,0,0,0,1574.985,1762.572Z" transform="translate(-1492.749 -1716.26)" fill="#fff"/>
            </g>
            <g id="Group_4041" data-name="Group 4041" transform="translate(83.603 61.711)">
              <path id="Path_3900" data-name="Path 3900" d="M1542.08,1670.643a11.068,11.068,0,0,1,5.813-9.745,11.073,11.073,0,1,0,0,19.491A11.073,11.073,0,0,1,1542.08,1670.643Z" transform="translate(-1531.56 -1659.57)" fill="#fff"/>
            </g>
            <g id="Group_4188" data-name="Group 4188" transform="translate(2.633 106.83)" opacity="0.2">
              <path id="Path_3969" data-name="Path 3969" d="M814.177,2066.089s.552,12.734-11.627,7.2l1.53,3.256,3.678,2.527,9.465,1.691,4.429-1.661-3.875-5.536v-7.751Z" transform="translate(-802.55 -2065.81)" fill="#fff"/>
            </g>
            <g id="Group_4189" data-name="Group 4189" transform="translate(162.91 109.875)" opacity="0.2">
              <path id="Path_3970" data-name="Path 3970" d="M2248.676,2093.241h10.23a1.227,1.227,0,0,1,1.21,1.44c-.491,2.78-2.22,8.658-8.121,9.078h-6.366l2.216-5.259Z" transform="translate(-2245.63 -2093.241)" fill="#fff"/>
            </g>
          </g>
          <g id="Path_3971" data-name="Path 3971" transform="translate(86.732 69.858)">
            <path d="M 5.035474300384521 9.320943832397461 C 2.672454357147217 9.320943832397461 0.7500042915344238 7.398493766784668 0.7500042915344238 5.035473823547363 C 0.7500042915344238 2.672453880310059 2.672454357147217 0.7500038146972656 5.035474300384521 0.7500038146972656 C 7.398494243621826 0.7500038146972656 9.320943832397461 2.672453880310059 9.320943832397461 5.035473823547363 C 9.320943832397461 7.398493766784668 7.398494243621826 9.320943832397461 5.035474300384521 9.320943832397461 Z" stroke="none"/>
            <path d="M 5.035474300384521 1.500003814697266 C 3.086014270782471 1.500003814697266 1.500004768371582 3.086013793945312 1.500004768371582 5.035473823547363 C 1.500004768371582 6.984933853149414 3.086014270782471 8.570943832397461 5.035474300384521 8.570943832397461 C 6.984934329986572 8.570943832397461 8.570943832397461 6.984933853149414 8.570943832397461 5.035473823547363 C 8.570943832397461 3.086013793945312 6.984934329986572 1.500003814697266 5.035474300384521 1.500003814697266 M 5.035474300384521 3.814697265625e-06 C 7.816484451293945 3.814697265625e-06 10.07094383239746 2.254453659057617 10.07094383239746 5.035473823547363 C 10.07094383239746 7.816483497619629 7.816484451293945 10.07094383239746 5.035474300384521 10.07094383239746 C 2.254454135894775 10.07094383239746 4.76837158203125e-06 7.816483497619629 4.76837158203125e-06 5.035473823547363 C 4.76837158203125e-06 2.254453659057617 2.254454135894775 3.814697265625e-06 5.035474300384521 3.814697265625e-06 Z" stroke="none" fill="#000"/>
          </g>
        </g>
      </g>
    </g>
  </svg>